# Blender 3.5.1
# www.blender.org
mtllib untitled.mtl
o InsectoidFighter
v -0.605546 -0.444061 0.214917
v -0.713300 -0.263714 0.331978
v -0.554215 -0.240343 0.486203
v -0.425198 -0.336307 0.486203
v -0.401827 -0.495393 0.486203
v -0.497792 -0.624409 0.331978
v -0.656877 -0.647780 0.423671
v -0.791590 -0.513041 0.513011
v -0.803568 -0.431504 0.480962
v -0.713300 -0.263714 0.809662
v -0.642869 -0.381594 0.906375
v -0.587766 -0.373499 0.906375
v -0.554215 -0.240343 0.809662
v -0.543079 -0.406738 0.906375
v -0.425198 -0.336307 0.809662
v -0.534983 -0.461841 0.906375
v -0.401827 -0.495393 0.809662
v -0.568223 -0.506529 0.906375
v -0.497792 -0.624409 0.809662
v -0.623326 -0.514624 0.906375
v -0.656877 -0.647780 0.809662
v -0.668013 -0.481385 0.906375
v -0.791590 -0.513042 0.770472
v -0.676108 -0.426282 0.906375
v -0.803568 -0.431504 0.770472
v -0.659608 -0.353577 0.906375
v -0.579792 -0.341852 0.906375
v -0.515062 -0.389999 0.906375
v -0.503336 -0.469816 0.906375
v -0.551484 -0.534546 0.906375
v -0.631300 -0.546271 0.906375
v -0.696030 -0.498124 0.906375
v -0.707756 -0.418307 0.906375
v -0.676108 -0.426282 0.781289
v -0.605546 -0.444061 0.781289
v -0.642869 -0.381594 0.781289
v -0.587766 -0.373499 0.781289
v -0.543079 -0.406738 0.781289
v -0.534983 -0.461841 0.781289
v -0.568223 -0.506529 0.781289
v -0.623326 -0.514624 0.781289
v -0.668013 -0.481384 0.781289
v -0.785894 -0.551815 0.486203
v -0.809265 -0.392730 0.423671
v -0.809265 -0.392730 0.809662
v -0.785894 -0.551816 0.809662
v -1.023596 -0.520162 0.861030
v -1.027820 -0.491411 0.849729
v -1.027820 -0.491411 0.951812
v -1.023596 -0.520162 0.951812
v 0.605546 -0.444061 0.214917
v 0.713300 -0.263714 0.331978
v 0.554215 -0.240343 0.486203
v 0.425198 -0.336307 0.486203
v 0.401827 -0.495393 0.486203
v 0.497792 -0.624409 0.331978
v 0.656877 -0.647780 0.423671
v 0.791590 -0.513041 0.513011
v 0.803568 -0.431504 0.480962
v 0.713300 -0.263714 0.809662
v 0.642869 -0.381594 0.906375
v 0.587766 -0.373499 0.906375
v 0.554215 -0.240343 0.809662
v 0.543079 -0.406738 0.906375
v 0.425198 -0.336307 0.809662
v 0.534983 -0.461841 0.906375
v 0.401827 -0.495393 0.809662
v 0.568223 -0.506529 0.906375
v 0.497792 -0.624409 0.809662
v 0.623326 -0.514624 0.906375
v 0.656877 -0.647780 0.809662
v 0.668013 -0.481385 0.906375
v 0.791590 -0.513042 0.770472
v 0.676108 -0.426282 0.906375
v 0.803568 -0.431504 0.770472
v 0.659608 -0.353577 0.906375
v 0.579792 -0.341852 0.906375
v 0.515062 -0.389999 0.906375
v 0.503336 -0.469816 0.906375
v 0.551484 -0.534546 0.906375
v 0.631300 -0.546271 0.906375
v 0.696030 -0.498124 0.906375
v 0.707756 -0.418307 0.906375
v 0.676108 -0.426282 0.781289
v 0.605546 -0.444061 0.781289
v 0.642869 -0.381594 0.781289
v 0.587766 -0.373499 0.781289
v 0.543079 -0.406738 0.781289
v 0.534983 -0.461841 0.781289
v 0.568223 -0.506529 0.781289
v 0.623326 -0.514624 0.781289
v 0.668013 -0.481384 0.781289
v 0.785894 -0.551815 0.486203
v 0.809265 -0.392730 0.423671
v 0.809265 -0.392730 0.809662
v 0.785894 -0.551816 0.809662
v 1.023596 -0.520162 0.861030
v 1.027820 -0.491411 0.849729
v 1.027820 -0.491411 0.951812
v 1.023596 -0.520162 0.951812
v 0.569346 0.358226 -0.986106
v 0.717475 0.318535 -0.986106
v 0.825913 0.210097 -0.986106
v 0.865604 0.061968 -0.986106
v 0.825913 -0.086161 -0.986106
v 0.717475 -0.194599 -0.986106
v 0.569346 -0.234290 -0.986105
v 0.421217 -0.194599 -0.986106
v 0.312779 -0.086161 -0.986106
v 0.273088 0.061968 -0.986106
v 0.312779 0.210097 -0.986106
v 0.421217 0.318535 -0.986106
v 0.569346 0.219008 -2.278270
v 0.569346 0.358226 -2.181916
v 0.717475 0.318535 -2.181916
v 0.647866 0.197968 -2.278270
v 0.825913 0.210097 -2.181916
v 0.705347 0.140488 -2.278270
v 0.865604 0.061968 -2.181916
v 0.726386 0.061968 -2.278270
v 0.825913 -0.086161 -2.181916
v 0.705347 -0.016552 -2.278271
v 0.717475 -0.194599 -2.181915
v 0.647866 -0.074033 -2.278270
v 0.569346 -0.234290 -2.181915
v 0.569346 -0.095072 -2.278269
v 0.421217 -0.194599 -2.181915
v 0.490826 -0.074033 -2.278270
v 0.312779 -0.086161 -2.181916
v 0.433345 -0.016552 -2.278270
v 0.273088 0.061968 -2.181916
v 0.412306 0.061968 -2.278270
v 0.312779 0.210097 -2.181916
v 0.433345 0.140488 -2.278270
v 0.421217 0.318534 -2.181916
v 0.490826 0.197968 -2.278270
v 0.667598 0.232146 -2.278270
v 0.569346 0.258472 -2.278270
v 0.739524 0.160220 -2.278270
v 0.765851 0.061968 -2.278270
v 0.739524 -0.036285 -2.278270
v 0.667598 -0.108210 -2.278270
v 0.569346 -0.134537 -2.278269
v 0.471094 -0.108210 -2.278270
v 0.399168 -0.036285 -2.278270
v 0.372841 0.061968 -2.278270
v 0.399168 0.160220 -2.278270
v 0.471094 0.232146 -2.278270
v 0.569346 0.219008 -2.149267
v 0.569346 0.061968 -2.149267
v 0.490826 0.197968 -2.149267
v 0.647866 0.197968 -2.149267
v 0.705347 0.140488 -2.149266
v 0.726386 0.061968 -2.149267
v 0.705347 -0.016552 -2.149267
v 0.647866 -0.074033 -2.149267
v 0.569346 -0.095072 -2.149266
v 0.490826 -0.074033 -2.149267
v 0.433345 -0.016552 -2.149267
v 0.412306 0.061968 -2.149267
v 0.433345 0.140488 -2.149267
v -0.569346 0.358226 -0.986106
v -0.717475 0.318535 -0.986106
v -0.825913 0.210097 -0.986106
v -0.865604 0.061968 -0.986106
v -0.825913 -0.086161 -0.986106
v -0.717475 -0.194599 -0.986106
v -0.569346 -0.234290 -0.986105
v -0.421217 -0.194599 -0.986106
v -0.312779 -0.086161 -0.986106
v -0.273088 0.061968 -0.986106
v -0.312779 0.210097 -0.986106
v -0.421217 0.318535 -0.986106
v -0.569346 0.219008 -2.278270
v -0.569346 0.358226 -2.181916
v -0.717475 0.318535 -2.181916
v -0.647866 0.197968 -2.278270
v -0.825913 0.210097 -2.181916
v -0.705347 0.140488 -2.278270
v -0.865604 0.061968 -2.181916
v -0.726386 0.061968 -2.278270
v -0.825913 -0.086161 -2.181916
v -0.705347 -0.016552 -2.278271
v -0.717475 -0.194599 -2.181915
v -0.647866 -0.074033 -2.278270
v -0.569346 -0.234290 -2.181915
v -0.569346 -0.095072 -2.278269
v -0.421217 -0.194599 -2.181915
v -0.490826 -0.074033 -2.278270
v -0.312779 -0.086161 -2.181916
v -0.433345 -0.016552 -2.278270
v -0.273088 0.061968 -2.181916
v -0.412306 0.061968 -2.278270
v -0.312779 0.210097 -2.181916
v -0.433345 0.140488 -2.278270
v -0.421217 0.318534 -2.181916
v -0.490826 0.197968 -2.278270
v -0.667598 0.232146 -2.278270
v -0.569346 0.258472 -2.278270
v -0.739524 0.160220 -2.278270
v -0.765851 0.061968 -2.278270
v -0.739524 -0.036285 -2.278270
v -0.667598 -0.108210 -2.278270
v -0.569346 -0.134537 -2.278269
v -0.471094 -0.108210 -2.278270
v -0.399168 -0.036285 -2.278270
v -0.372841 0.061968 -2.278270
v -0.399168 0.160220 -2.278270
v -0.471094 0.232146 -2.278270
v -0.569346 0.219008 -2.149267
v -0.569346 0.061968 -2.149267
v -0.490826 0.197968 -2.149267
v -0.647866 0.197968 -2.149267
v -0.705347 0.140488 -2.149266
v -0.726386 0.061968 -2.149267
v -0.705347 -0.016552 -2.149267
v -0.647866 -0.074033 -2.149267
v -0.569346 -0.095072 -2.149266
v -0.490826 -0.074033 -2.149267
v -0.433345 -0.016552 -2.149267
v -0.412306 0.061968 -2.149267
v -0.433345 0.140488 -2.149267
v -0.259652 -0.685003 -0.168186
v -0.259652 -0.687216 -0.910393
v 0.000000 -0.687508 -1.008379
v 0.000000 -0.684729 -0.076314
v 0.259652 -0.685003 -0.168186
v 0.259652 -0.687216 -0.910393
v -0.082224 -1.664322 -0.086498
v 0.082224 -1.664322 -0.086498
v 0.000000 -1.659240 -0.004787
v -0.044499 -1.803451 -0.074893
v 0.000000 -1.852306 -0.070817
v 0.044499 -1.803451 -0.074893
v 0.082580 -1.661893 -0.530330
v -0.082580 -1.661893 -0.530330
v 0.000000 -1.717953 -0.584881
v 0.044692 -1.801242 -0.475992
v -0.000000 -1.850175 -0.456911
v -0.044692 -1.801242 -0.475992
v -0.000000 0.927241 -2.088907
v 0.109201 0.897980 -2.088907
v 0.189142 0.818040 -2.088907
v 0.218402 0.708839 -2.088908
v 0.189142 0.599637 -2.088908
v 0.109201 0.519697 -2.088907
v 0.000000 0.490436 -2.088907
v -0.109201 0.519697 -2.088907
v -0.189142 0.599637 -2.088908
v -0.218402 0.708838 -2.088908
v -0.189142 0.818039 -2.088907
v -0.109201 0.897980 -2.088907
v -0.000000 0.824609 -2.410915
v -0.000000 0.927241 -2.339882
v 0.109201 0.897980 -2.339882
v 0.057885 0.809099 -2.410914
v 0.189142 0.818040 -2.339882
v 0.100260 0.766724 -2.410914
v 0.218402 0.708839 -2.339882
v 0.115770 0.708839 -2.410915
v 0.189142 0.599637 -2.339882
v 0.100260 0.650953 -2.410915
v 0.109201 0.519697 -2.339882
v 0.057885 0.608579 -2.410915
v 0.000000 0.490436 -2.339882
v -0.000000 0.593068 -2.410914
v -0.109201 0.519697 -2.339882
v -0.057885 0.608579 -2.410915
v -0.189142 0.599637 -2.339882
v -0.100260 0.650953 -2.410915
v -0.218402 0.708838 -2.339882
v -0.115770 0.708839 -2.410915
v -0.189142 0.818040 -2.339882
v -0.100260 0.766724 -2.410915
v -0.109201 0.897980 -2.339882
v -0.057885 0.809099 -2.410914
v 0.072432 0.834294 -2.410914
v -0.000000 0.853702 -2.410915
v 0.125456 0.781271 -2.410915
v 0.144864 0.708839 -2.410915
v 0.125456 0.636407 -2.410915
v 0.072432 0.583383 -2.410915
v -0.000000 0.563975 -2.410914
v -0.072432 0.583383 -2.410915
v -0.125456 0.636407 -2.410915
v -0.144864 0.708839 -2.410915
v -0.125456 0.781270 -2.410915
v -0.072432 0.834294 -2.410915
v -0.000000 0.824609 -2.315813
v -0.000000 0.708839 -2.315813
v -0.057885 0.809098 -2.315813
v 0.057885 0.809099 -2.315813
v 0.100260 0.766724 -2.315813
v 0.115770 0.708839 -2.315813
v 0.100260 0.650953 -2.315814
v 0.057885 0.608578 -2.315813
v -0.000000 0.593068 -2.315813
v -0.057885 0.608578 -2.315813
v -0.100260 0.650953 -2.315813
v -0.115770 0.708839 -2.315813
v -0.100260 0.766724 -2.315813
v -1.558943 0.163882 -0.986793
v -1.394413 0.553991 -0.911999
v -1.132681 0.888984 -0.847772
v -0.791586 1.146034 -0.798489
v -0.394373 1.307623 -0.767508
v -0.848881 0.006154 0.912895
v -1.170187 0.091346 0.358778
v -0.759746 0.217496 0.953415
v -1.047346 0.382607 0.414620
v -0.617952 0.398980 0.988210
v -0.851934 0.632718 0.462573
v -0.433163 0.538237 1.014910
v -0.597267 0.824635 0.499369
v -0.217971 0.625778 1.031694
v -0.300702 0.945280 0.522499
v -1.125022 0.546498 -1.921486
v -1.006402 0.827750 -1.867563
v -0.817706 1.069265 -1.821258
v -0.571791 1.254587 -1.785727
v -0.285418 1.371086 -1.763391
v -0.586045 0.878896 -2.333985
v -0.524565 1.024666 -2.306037
v -0.426765 1.149842 -2.282037
v -0.299310 1.245893 -2.263622
v -0.150884 1.306273 -2.252046
v -0.542405 -0.080885 1.145738
v -0.485389 0.054301 1.171657
v -0.394690 0.170388 1.193914
v -0.276488 0.259465 1.210992
v -0.138840 0.315461 1.221728
v -0.033956 1.354224 -0.758574
v -0.031610 0.980072 0.529170
v -0.022715 0.651025 1.036534
v -0.025573 1.404683 -1.756949
v -0.016209 1.323686 -2.248707
v -0.013942 0.331610 1.224825
v -0.555300 -0.067602 1.135332
v -0.497869 0.068571 1.161440
v -0.406508 0.185504 1.183859
v -0.287445 0.275231 1.201062
v -0.148793 0.331635 1.211876
v -0.022985 0.347902 1.214995
v -0.756919 0.228905 0.940027
v -0.844234 0.021880 0.900335
v -0.618022 0.406682 0.974112
v -0.437008 0.543094 1.000266
v -0.226212 0.628847 1.016707
v -0.034945 0.653578 1.021448
v -0.309842 0.941655 0.506683
v -1.156344 0.110294 0.347289
v -1.036750 0.393856 0.401655
v -0.846503 0.637356 0.448340
v -0.598568 0.824200 0.484163
v -0.047863 0.975528 0.513177
v -0.405182 1.296091 -0.803208
v -1.355764 0.579731 -0.940553
v -1.106977 0.898157 -0.879502
v -0.782751 1.142495 -0.832657
v -1.512158 0.208916 -1.011648
v -0.062591 1.340388 -0.794715
v -0.790719 1.074857 -1.840516
v -0.559123 1.249388 -1.807054
v -0.289424 1.359103 -1.786019
v -1.080141 0.582528 -1.934908
v -0.968428 0.847403 -1.884125
v -0.044709 1.390744 -1.779952
v -0.500586 1.034051 -2.311028
v -0.408727 1.151622 -2.288487
v -0.289014 1.241838 -2.271190
v -0.149605 1.298551 -2.260317
v -0.558331 0.897135 -2.337278
v -0.023110 1.314906 -2.257181
v -0.063984 -0.371802 1.174692
v -0.509415 0.917615 -2.298405
v -0.441166 0.662907 -2.298405
v -0.254707 0.476449 -2.298405
v -0.626187 -0.478447 0.199185
v -0.739838 -0.311858 0.199185
v -1.022720 0.391572 0.423092
v -0.246599 -0.246816 1.082491
v -0.427122 -0.066293 1.082491
v -0.493198 0.293166 1.082491
v -0.933178 0.407002 -0.986793
v -0.762425 -0.023974 0.905585
v -0.803101 0.174707 0.358778
v -0.757935 0.758193 -1.921486
v -0.586045 0.878896 -2.081952
v -0.555300 -0.067602 1.038234
v -0.757778 -0.008248 0.890133
v -0.789257 0.193655 0.347289
v -0.886392 0.452036 -1.011648
v -0.713055 0.794223 -1.934908
v -0.558331 0.897135 -2.085246
v -0.542405 -0.080885 1.048641
v -0.063984 -0.371802 1.077594
v -0.626187 -0.478447 -0.832627
v -0.398212 -0.190407 -1.876305
v -0.739838 -0.311858 -0.832627
v -0.683692 0.212059 -1.886547
v -0.799711 0.781645 -1.890367
v -1.022720 0.602906 -1.056729
v -0.500000 -0.663411 0.423092
v -0.866025 -0.126895 0.423092
v -0.500000 -0.663411 -1.056535
v -0.866025 -0.126894 -1.056535
v -1.423800 -0.959431 0.209000
v -1.492692 -0.888644 0.209000
v -1.423800 -0.959431 0.136651
v -1.492692 -0.888644 0.136651
v 0.000000 -0.371802 1.174692
v 0.000000 1.410680 -0.768753
v 1.558943 0.163882 -0.986793
v 1.394413 0.553991 -0.911999
v 1.132681 0.888984 -0.847772
v 0.791586 1.146034 -0.798489
v 0.394373 1.307623 -0.767508
v 0.000000 1.032609 0.527771
v 0.000000 0.691847 1.086800
v 0.848881 0.006154 0.912895
v 1.170187 0.091346 0.358778
v 0.759746 0.217496 0.953415
v 1.047346 0.382607 0.414620
v 0.617952 0.398980 0.988210
v 0.851934 0.632718 0.462573
v 0.433163 0.538237 1.014910
v 0.597267 0.824635 0.499369
v 0.217971 0.625778 1.031694
v 0.300702 0.945280 0.522499
v 0.000000 1.459852 -1.773263
v 1.125022 0.546498 -1.921486
v 1.006402 0.827750 -1.867563
v 0.817706 1.069265 -1.821258
v 0.571791 1.254587 -1.785727
v 0.285418 1.371086 -1.763391
v 0.000000 1.376718 -2.269866
v 0.586045 0.878896 -2.333985
v 0.524565 1.024666 -2.306037
v 0.426765 1.149842 -2.282037
v 0.299310 1.245893 -2.263622
v 0.150884 1.306273 -2.252046
v 0.000000 1.056678 -2.452197
v 0.000000 0.330102 1.224535
v 0.542405 -0.080885 1.145738
v 0.485389 0.054301 1.171657
v 0.394690 0.170388 1.193914
v 0.276488 0.259465 1.210992
v 0.138840 0.315461 1.221728
v 0.033956 1.354224 -0.758574
v 0.031610 0.980072 0.529170
v 0.022715 0.651025 1.036534
v 0.025573 1.404683 -1.756949
v 0.016209 1.323686 -2.248707
v 0.013942 0.331610 1.224825
v 0.000000 0.350874 1.215565
v 0.555300 -0.067602 1.135332
v 0.497869 0.068571 1.161440
v 0.406508 0.185504 1.183859
v 0.287445 0.275231 1.201062
v 0.148793 0.331635 1.211876
v 0.022985 0.347902 1.214995
v 0.000000 0.658096 1.022315
v 0.756919 0.228905 0.940027
v 0.844234 0.021880 0.900335
v 0.618022 0.406682 0.974112
v 0.437008 0.543094 1.000266
v 0.226212 0.628847 1.016707
v 0.034945 0.653578 1.021448
v 0.309842 0.941655 0.506683
v 0.000000 0.981717 0.514363
v 1.156344 0.110294 0.347289
v 1.036750 0.393856 0.401655
v 0.846503 0.637356 0.448340
v 0.598568 0.824200 0.484163
v 0.047863 0.975528 0.513177
v 0.405182 1.296091 -0.803208
v 0.000000 1.348481 -0.793164
v 1.355764 0.579731 -0.940553
v 1.106977 0.898157 -0.879502
v 0.782751 1.142495 -0.832657
v 1.512158 0.208916 -1.011648
v 0.062591 1.340388 -0.794715
v 0.000000 1.396525 -1.778844
v 0.790719 1.074857 -1.840516
v 0.559123 1.249388 -1.807054
v 0.289424 1.359103 -1.786019
v 1.080141 0.582528 -1.934908
v 0.968428 0.847403 -1.884125
v 0.044709 1.390744 -1.779952
v 0.500586 1.034051 -2.311028
v 0.408727 1.151622 -2.288487
v 0.000000 1.317894 -2.256608
v 0.289014 1.241838 -2.271190
v 0.149605 1.298551 -2.260317
v 0.558331 0.897135 -2.337278
v 0.023110 1.314906 -2.257181
v 0.063984 -0.371802 1.174692
v 0.509415 0.917615 -2.298405
v 0.441166 0.662907 -2.298405
v 0.254707 0.476449 -2.298405
v 0.000000 -0.797385 0.423092
v 0.626187 -0.478447 0.199185
v 0.739838 -0.311858 0.199185
v 1.022720 0.391572 0.423092
v 0.000000 0.408200 -2.298406
v 0.000000 1.091242 -2.298405
v 0.000000 -0.312892 1.082491
v 0.246599 -0.246816 1.082491
v 0.427122 -0.066293 1.082491
v 0.493198 0.293166 1.082491
v 0.933178 0.407002 -0.986793
v 0.762425 -0.023974 0.905585
v 0.803101 0.174707 0.358778
v 0.757935 0.758193 -1.921486
v 0.586045 0.878896 -2.081952
v 0.555300 -0.067602 1.038234
v 0.757778 -0.008248 0.890133
v 0.789257 0.193655 0.347289
v 0.886392 0.452036 -1.011648
v 0.713055 0.794223 -1.934908
v 0.000000 1.056679 -2.200164
v 0.558331 0.897135 -2.085246
v 0.000000 -0.371802 1.077594
v 0.542405 -0.080885 1.048641
v 0.063984 -0.371802 1.077594
v 0.000000 -0.797385 -1.056535
v 0.000000 -0.297107 -1.876305
v 0.626187 -0.478447 -0.832627
v 0.398212 -0.190407 -1.876305
v 0.739838 -0.311858 -0.832627
v 0.683692 0.212059 -1.886547
v 0.799711 0.781645 -1.890367
v 1.022720 0.602906 -1.056729
v 0.500000 -0.663411 0.423092
v 0.866025 -0.126895 0.423092
v 0.500000 -0.663411 -1.056535
v 0.866025 -0.126894 -1.056535
v 1.423800 -0.959431 0.209000
v 1.492692 -0.888644 0.209000
v 1.423800 -0.959431 0.136651
v 1.492692 -0.888644 0.136651
v -0.554215 -0.240343 0.809662
v -0.713300 -0.263714 0.809662
v -0.659608 -0.353577 0.906375
v -0.579792 -0.341852 0.906375
v -0.425198 -0.336307 0.809662
v -0.515062 -0.389999 0.906375
v -0.401827 -0.495393 0.809662
v -0.503336 -0.469816 0.906375
v -0.497792 -0.624409 0.809662
v -0.551484 -0.534546 0.906375
v -0.656877 -0.647780 0.809662
v -0.631300 -0.546271 0.906375
v -0.785894 -0.551816 0.809662
v -0.696030 -0.498124 0.906375
v -0.809265 -0.392730 0.809662
v -0.707756 -0.418307 0.906375
v -0.642869 -0.381594 0.906375
v -0.587766 -0.373499 0.906375
v -0.543079 -0.406738 0.906375
v -0.534983 -0.461841 0.906375
v -0.568223 -0.506529 0.906375
v -0.623326 -0.514624 0.906375
v -0.668013 -0.481385 0.906375
v -0.676108 -0.426282 0.906375
v -0.642869 -0.381594 0.781289
v -0.587766 -0.373499 0.781289
v -0.543079 -0.406738 0.781289
v -0.534983 -0.461841 0.781289
v -0.568223 -0.506529 0.781289
v -0.623326 -0.514624 0.781289
v -0.668013 -0.481384 0.781289
v -0.676108 -0.426282 0.781289
v 0.554215 -0.240343 0.809662
v 0.713300 -0.263714 0.809662
v 0.659608 -0.353577 0.906375
v 0.579792 -0.341852 0.906375
v 0.425198 -0.336307 0.809662
v 0.515062 -0.389999 0.906375
v 0.401827 -0.495393 0.809662
v 0.503336 -0.469816 0.906375
v 0.497792 -0.624409 0.809662
v 0.551484 -0.534546 0.906375
v 0.656877 -0.647780 0.809662
v 0.631300 -0.546271 0.906375
v 0.785894 -0.551816 0.809662
v 0.696030 -0.498124 0.906375
v 0.809265 -0.392730 0.809662
v 0.707756 -0.418307 0.906375
v 0.642869 -0.381594 0.906375
v 0.587766 -0.373499 0.906375
v 0.543079 -0.406738 0.906375
v 0.534983 -0.461841 0.906375
v 0.568223 -0.506529 0.906375
v 0.623326 -0.514624 0.906375
v 0.668013 -0.481385 0.906375
v 0.676108 -0.426282 0.906375
v 0.642869 -0.381594 0.781289
v 0.587766 -0.373499 0.781289
v 0.543079 -0.406738 0.781289
v 0.534983 -0.461841 0.781289
v 0.568223 -0.506529 0.781289
v 0.623326 -0.514624 0.781289
v 0.668013 -0.481384 0.781289
v 0.676108 -0.426282 0.781289
v 0.569346 0.358226 -2.181916
v 0.717475 0.318535 -2.181916
v 0.667598 0.232146 -2.278270
v 0.569346 0.258472 -2.278270
v 0.825913 0.210097 -2.181916
v 0.739524 0.160220 -2.278270
v 0.865604 0.061968 -2.181916
v 0.765851 0.061968 -2.278270
v 0.825913 -0.086161 -2.181916
v 0.739524 -0.036285 -2.278270
v 0.717475 -0.194599 -2.181915
v 0.667598 -0.108210 -2.278270
v 0.569346 -0.234290 -2.181915
v 0.569346 -0.134537 -2.278269
v 0.421217 -0.194599 -2.181915
v 0.471094 -0.108210 -2.278270
v 0.312779 -0.086161 -2.181916
v 0.399168 -0.036285 -2.278270
v 0.273088 0.061968 -2.181916
v 0.372841 0.061968 -2.278270
v 0.312779 0.210097 -2.181916
v 0.399168 0.160220 -2.278270
v 0.421217 0.318534 -2.181916
v 0.471094 0.232146 -2.278270
v 0.647866 0.197968 -2.278270
v 0.569346 0.219008 -2.278270
v 0.705347 0.140488 -2.278270
v 0.726386 0.061968 -2.278270
v 0.705347 -0.016552 -2.278271
v 0.647866 -0.074033 -2.278270
v 0.569346 -0.095072 -2.278269
v 0.490826 -0.074033 -2.278270
v 0.433345 -0.016552 -2.278270
v 0.412306 0.061968 -2.278270
v 0.433345 0.140488 -2.278270
v 0.490826 0.197968 -2.278270
v 0.647866 0.197968 -2.149267
v 0.569346 0.219008 -2.149267
v 0.705347 0.140488 -2.149266
v 0.726386 0.061968 -2.149267
v 0.705347 -0.016552 -2.149267
v 0.647866 -0.074033 -2.149267
v 0.569346 -0.095072 -2.149266
v 0.490826 -0.074033 -2.149267
v 0.433345 -0.016552 -2.149267
v 0.412306 0.061968 -2.149267
v 0.433345 0.140488 -2.149267
v 0.490826 0.197968 -2.149267
v -0.569346 0.358226 -2.181916
v -0.717475 0.318535 -2.181916
v -0.667598 0.232146 -2.278270
v -0.569346 0.258472 -2.278270
v -0.825913 0.210097 -2.181916
v -0.739524 0.160220 -2.278270
v -0.865604 0.061968 -2.181916
v -0.765851 0.061968 -2.278270
v -0.825913 -0.086161 -2.181916
v -0.739524 -0.036285 -2.278270
v -0.717475 -0.194599 -2.181915
v -0.667598 -0.108210 -2.278270
v -0.569346 -0.234290 -2.181915
v -0.569346 -0.134537 -2.278269
v -0.421217 -0.194599 -2.181915
v -0.471094 -0.108210 -2.278270
v -0.312779 -0.086161 -2.181916
v -0.399168 -0.036285 -2.278270
v -0.273088 0.061968 -2.181916
v -0.372841 0.061968 -2.278270
v -0.312779 0.210097 -2.181916
v -0.399168 0.160220 -2.278270
v -0.421217 0.318534 -2.181916
v -0.471094 0.232146 -2.278270
v -0.647866 0.197968 -2.278270
v -0.569346 0.219008 -2.278270
v -0.705347 0.140488 -2.278270
v -0.726386 0.061968 -2.278270
v -0.705347 -0.016552 -2.278271
v -0.647866 -0.074033 -2.278270
v -0.569346 -0.095072 -2.278269
v -0.490826 -0.074033 -2.278270
v -0.433345 -0.016552 -2.278270
v -0.412306 0.061968 -2.278270
v -0.433345 0.140488 -2.278270
v -0.490826 0.197968 -2.278270
v -0.647866 0.197968 -2.149267
v -0.569346 0.219008 -2.149267
v -0.705347 0.140488 -2.149266
v -0.726386 0.061968 -2.149267
v -0.705347 -0.016552 -2.149267
v -0.647866 -0.074033 -2.149267
v -0.569346 -0.095072 -2.149266
v -0.490826 -0.074033 -2.149267
v -0.433345 -0.016552 -2.149267
v -0.412306 0.061968 -2.149267
v -0.433345 0.140488 -2.149267
v -0.490826 0.197968 -2.149267
v -0.082224 -1.664322 -0.086498
v -0.044499 -1.803451 -0.074893
v 0.000000 -1.852306 -0.070817
v 0.044499 -1.803451 -0.074893
v 0.082224 -1.664322 -0.086498
v 0.082580 -1.661893 -0.530330
v 0.044692 -1.801242 -0.475992
v -0.000000 -1.850175 -0.456911
v -0.044692 -1.801242 -0.475992
v -0.082580 -1.661893 -0.530330
v 0.259652 -0.685003 -0.168186
v -0.259652 -0.685003 -0.168186
v -0.259652 -0.687216 -0.910393
v 0.259652 -0.687216 -0.910393
v -0.000000 0.927241 -2.339882
v 0.109201 0.897980 -2.339882
v 0.072432 0.834294 -2.410914
v -0.000000 0.853702 -2.410915
v 0.189142 0.818040 -2.339882
v 0.125456 0.781271 -2.410915
v 0.218402 0.708839 -2.339882
v 0.144864 0.708839 -2.410915
v 0.189142 0.599637 -2.339882
v 0.125456 0.636407 -2.410915
v 0.109201 0.519697 -2.339882
v 0.072432 0.583383 -2.410915
v 0.000000 0.490436 -2.339882
v -0.000000 0.563975 -2.410914
v -0.109201 0.519697 -2.339882
v -0.072432 0.583383 -2.410915
v -0.189142 0.599637 -2.339882
v -0.125456 0.636407 -2.410915
v -0.218402 0.708838 -2.339882
v -0.144864 0.708839 -2.410915
v -0.189142 0.818040 -2.339882
v -0.125456 0.781270 -2.410915
v -0.109201 0.897980 -2.339882
v -0.072432 0.834294 -2.410915
v 0.057885 0.809099 -2.410914
v -0.000000 0.824609 -2.410915
v 0.100260 0.766724 -2.410914
v 0.115770 0.708839 -2.410915
v 0.100260 0.650953 -2.410915
v 0.057885 0.608579 -2.410915
v -0.000000 0.593068 -2.410914
v -0.057885 0.608579 -2.410915
v -0.100260 0.650953 -2.410915
v -0.115770 0.708839 -2.410915
v -0.100260 0.766724 -2.410915
v -0.057885 0.809099 -2.410914
v 0.057885 0.809099 -2.315813
v -0.000000 0.824609 -2.315813
v 0.100260 0.766724 -2.315813
v 0.115770 0.708839 -2.315813
v 0.100260 0.650953 -2.315814
v 0.057885 0.608578 -2.315813
v -0.000000 0.593068 -2.315813
v -0.057885 0.608578 -2.315813
v -0.100260 0.650953 -2.315813
v -0.115770 0.708839 -2.315813
v -0.100260 0.766724 -2.315813
v -0.057885 0.809098 -2.315813
v -1.558943 0.163882 -0.986793
v -1.558943 0.163882 -0.986793
v -1.394413 0.553991 -0.911999
v -1.132681 0.888984 -0.847772
v -0.791586 1.146034 -0.798489
v -0.394373 1.307623 -0.767508
v -0.033956 1.354224 -0.758574
v 0.000000 1.410680 -0.768753
v -1.047346 0.382607 0.414620
v -1.170187 0.091346 0.358778
v -1.170187 0.091346 0.358778
v -0.844234 0.021880 0.900335
v -0.848881 0.006154 0.912895
v -0.848881 0.006154 0.912895
v -0.759746 0.217496 0.953415
v -0.851934 0.632718 0.462573
v -0.617952 0.398980 0.988210
v -0.597267 0.824635 0.499369
v -0.433163 0.538237 1.014910
v -0.300702 0.945280 0.522499
v -0.217971 0.625778 1.031694
v -0.031610 0.980072 0.529170
v -0.022715 0.651025 1.036534
v 0.000000 0.691847 1.086800
v -1.156344 0.110294 0.347289
v -1.125022 0.546498 -1.921486
v -1.125022 0.546498 -1.921486
v -1.006402 0.827750 -1.867563
v -0.817706 1.069265 -1.821258
v -0.571791 1.254587 -1.785727
v -0.285418 1.371086 -1.763391
v -0.025573 1.404683 -1.756949
v 0.000000 1.459852 -1.773263
v -1.512158 0.208916 -1.011648
v -0.586045 0.878896 -2.333985
v -0.586045 0.878896 -2.333985
v -0.524565 1.024666 -2.306037
v -0.426765 1.149842 -2.282037
v -0.299310 1.245893 -2.263622
v -0.150884 1.306273 -2.252046
v -0.016209 1.323686 -2.248707
v 0.000000 1.376718 -2.269866
v -1.080141 0.582528 -1.934908
v -0.558331 0.897135 -2.337278
v -0.555300 -0.067602 1.135332
v -0.542405 -0.080885 1.145738
v -0.542405 -0.080885 1.145738
v -0.485389 0.054301 1.171657
v -0.394690 0.170388 1.193914
v -0.276488 0.259465 1.210992
v -0.138840 0.315461 1.221728
v -0.013942 0.331610 1.224825
v 0.000000 0.330102 1.224535
v 0.000000 1.032609 0.527771
v 0.000000 1.056678 -2.452197
v 0.000000 -0.371802 1.174692
v -0.063984 -0.371802 1.174692
v 0.000000 -0.797385 0.423092
v -0.500000 -0.663411 0.423092
v -0.866025 -0.126895 0.423092
v -1.022720 0.391572 0.423092
v -0.398212 -0.190407 -1.876305
v 0.000000 -0.297107 -1.876305
v -0.683692 0.212059 -1.886547
v -0.799711 0.781645 -1.890367
v 1.558943 0.163882 -0.986793
v 1.558943 0.163882 -0.986793
v 1.394413 0.553991 -0.911999
v 1.132681 0.888984 -0.847772
v 0.791586 1.146034 -0.798489
v 0.394373 1.307623 -0.767508
v 0.033956 1.354224 -0.758574
v 1.047346 0.382607 0.414620
v 1.170187 0.091346 0.358778
v 1.170187 0.091346 0.358778
v 0.844234 0.021880 0.900335
v 0.848881 0.006154 0.912895
v 0.848881 0.006154 0.912895
v 0.759746 0.217496 0.953415
v 0.851934 0.632718 0.462573
v 0.617952 0.398980 0.988210
v 0.597267 0.824635 0.499369
v 0.433163 0.538237 1.014910
v 0.300702 0.945280 0.522499
v 0.217971 0.625778 1.031694
v 0.031610 0.980072 0.529170
v 0.022715 0.651025 1.036534
v 1.156344 0.110294 0.347289
v 1.125022 0.546498 -1.921486
v 1.125022 0.546498 -1.921486
v 1.006402 0.827750 -1.867563
v 0.817706 1.069265 -1.821258
v 0.571791 1.254587 -1.785727
v 0.285418 1.371086 -1.763391
v 0.025573 1.404683 -1.756949
v 1.512158 0.208916 -1.011648
v 0.586045 0.878896 -2.333985
v 0.586045 0.878896 -2.333985
v 0.524565 1.024666 -2.306037
v 0.426765 1.149842 -2.282037
v 0.299310 1.245893 -2.263622
v 0.150884 1.306273 -2.252046
v 0.016209 1.323686 -2.248707
v 1.080141 0.582528 -1.934908
v 0.558331 0.897135 -2.337278
v 0.555300 -0.067602 1.135332
v 0.542405 -0.080885 1.145738
v 0.542405 -0.080885 1.145738
v 0.485389 0.054301 1.171657
v 0.394690 0.170388 1.193914
v 0.276488 0.259465 1.210992
v 0.138840 0.315461 1.221728
v 0.013942 0.331610 1.224825
v 0.063984 -0.371802 1.174692
v 0.500000 -0.663411 0.423092
v 0.866025 -0.126895 0.423092
v 1.022720 0.391572 0.423092
v 0.398212 -0.190407 -1.876305
v 0.683692 0.212059 -1.886547
v 0.799711 0.781645 -1.890367
vn -0.7471 0.5380 -0.3903
vn -0.5129 0.8584 -0.0000
vn 0.2443 0.9697 -0.0000
vn 0.1652 0.9863 -0.0000
vn -0.9382 0.1125 -0.3273
vn -0.9697 0.2443 -0.0000
vn 0.8584 0.5129 -0.0000
vn 0.9697 -0.2443 -0.0000
vn 0.9468 -0.3219 -0.0000
vn 0.5129 -0.8584 -0.0000
vn 0.1197 -0.9129 -0.3903
vn -0.8584 -0.5129 -0.0000
vn -0.2443 -0.9697 -0.0000
vn -0.6152 -0.3676 -0.6975
vn -0.3455 -0.8795 -0.3273
vn -0.8341 -0.4984 -0.2363
vn -0.9412 -0.2982 -0.1587
vn -0.7739 -0.5843 0.2441
vn -0.2976 -0.5753 0.7619
vn -0.6536 -0.7399 -0.1592
vn 0.1658 0.6580 0.7345
vn -0.3481 0.5825 0.7345
vn 0.5825 0.3481 0.7345
vn 0.6580 -0.1658 0.7345
vn 0.3481 -0.5825 0.7345
vn -0.1658 -0.6580 0.7345
vn -0.5825 -0.3481 0.7345
vn -0.6580 0.1658 0.7345
vn -0.0000 -0.0000 1.0000
vn -0.9902 -0.0945 -0.1028
vn -0.9093 0.3370 0.2441
vn -0.4505 0.4654 0.7619
vn -0.8628 0.4317 -0.2629
vn 0.7471 0.5380 -0.3903
vn -0.1652 0.9863 -0.0000
vn -0.2443 0.9697 -0.0000
vn 0.5129 0.8584 -0.0000
vn 0.9382 0.1125 -0.3273
vn 0.9697 0.2443 -0.0000
vn -0.8584 0.5129 -0.0000
vn -0.9468 -0.3219 -0.0000
vn -0.9697 -0.2443 -0.0000
vn -0.1197 -0.9129 -0.3903
vn -0.5129 -0.8584 -0.0000
vn 0.8584 -0.5129 -0.0000
vn 0.2443 -0.9697 -0.0000
vn 0.6152 -0.3676 -0.6975
vn 0.3455 -0.8795 -0.3273
vn 0.8341 -0.4984 -0.2363
vn 0.9412 -0.2982 -0.1587
vn 0.6536 -0.7399 -0.1592
vn 0.2976 -0.5753 0.7619
vn 0.7739 -0.5843 0.2441
vn -0.1658 0.6580 0.7345
vn 0.3481 0.5825 0.7345
vn -0.5825 0.3481 0.7345
vn -0.6580 -0.1658 0.7345
vn -0.3481 -0.5825 0.7345
vn 0.1658 -0.6580 0.7345
vn 0.5825 -0.3481 0.7345
vn 0.6580 0.1658 0.7345
vn 0.9902 -0.0945 -0.1028
vn 0.9093 0.3370 0.2441
vn 0.8628 0.4317 -0.2629
vn 0.4505 0.4654 0.7619
vn -0.0000 1.0000 -0.0000
vn 0.5000 0.8660 -0.0000
vn -0.5000 0.8660 -0.0000
vn 0.8660 0.5000 -0.0000
vn 1.0000 -0.0000 -0.0000
vn 0.8660 -0.5000 -0.0000
vn -0.8660 -0.5000 -0.0000
vn -1.0000 -0.0000 -0.0000
vn 0.5000 -0.8660 -0.0000
vn -0.0000 -1.0000 -0.0000
vn -0.5000 -0.8660 -0.0000
vn -0.8660 0.5000 -0.0000
vn -0.0000 0.6947 -0.7193
vn 0.3474 0.6017 -0.7193
vn 0.6017 0.3474 -0.7193
vn 0.6947 -0.0000 -0.7193
vn 0.6017 -0.3474 -0.7193
vn 0.3474 -0.6017 -0.7193
vn -0.0000 -0.6947 -0.7193
vn -0.3474 -0.6017 -0.7193
vn -0.6017 -0.3474 -0.7193
vn -0.6947 -0.0000 -0.7193
vn -0.6017 0.3474 -0.7193
vn -0.3474 0.6017 -0.7193
vn -0.0000 -0.0000 -1.0000
vn -0.0000 0.0322 0.9995
vn -0.0000 -0.0735 0.9973
vn 0.5688 -0.0422 0.8214
vn 0.4529 0.0288 0.8911
vn -0.9749 -0.2228 -0.0003
vn -0.9839 -0.1784 0.0003
vn -0.9775 -0.2107 -0.0001
vn 0.9749 -0.2228 -0.0003
vn 0.9775 -0.2107 -0.0001
vn 0.9839 -0.1784 0.0003
vn -0.4529 0.0288 0.8911
vn -0.5688 -0.0422 0.8214
vn -0.0000 -0.4078 -0.9131
vn -0.0000 -0.5128 -0.8585
vn -0.5256 -0.3919 -0.7551
vn -0.4284 -0.3685 -0.8250
vn -0.4898 -0.2543 0.8339
vn -0.0000 -0.3236 0.9462
vn 0.4898 -0.2543 0.8339
vn 0.5256 -0.3919 -0.7551
vn 0.4948 -0.5803 -0.6469
vn -0.0000 -0.6955 -0.7186
vn -0.4948 -0.5803 -0.6469
vn 0.8706 -0.4921 -0.0023
vn 0.8987 -0.4385 -0.0020
vn -0.0000 -1.0000 -0.0052
vn -0.8706 -0.4921 -0.0023
vn -0.8987 -0.4385 -0.0020
vn 0.4284 -0.3685 -0.8250
vn -0.1045 -0.0963 0.9899
vn -0.0000 -0.0920 0.9958
vn -0.1033 -0.1038 0.9892
vn -0.0876 -0.0989 0.9912
vn -0.5342 0.1639 0.8293
vn -0.4371 0.2862 0.8526
vn -0.4621 0.3054 0.8326
vn -0.5548 0.1638 0.8157
vn -0.0598 -0.0834 0.9947
vn -0.3150 0.3867 0.8667
vn -0.3305 0.4164 0.8470
vn -0.0287 -0.0743 0.9968
vn -0.1716 0.4609 0.8707
vn -0.1710 0.4851 0.8576
vn -0.2629 0.4579 0.8493
vn -0.5286 0.4050 0.7460
vn -0.0000 0.4310 0.9024
vn -0.0000 0.4410 0.8975
vn -0.9140 0.3992 -0.0716
vn -0.8464 0.4198 -0.3276
vn -0.8354 0.4816 -0.2649
vn -0.8461 0.5293 0.0622
vn -0.7146 0.6981 -0.0452
vn -0.6926 0.7090 0.1326
vn -0.4816 0.8763 0.0161
vn -0.5031 0.8509 0.1510
vn -0.2029 0.9735 -0.1058
vn -0.2813 0.9521 0.1196
vn -0.2930 0.9559 -0.0193
vn -0.3385 0.6834 -0.6468
vn -0.0000 0.5612 -0.8277
vn -0.0000 0.9189 -0.3944
vn -0.8100 0.4327 0.3959
vn -0.8974 0.3203 0.3035
vn -0.9229 0.3667 0.1176
vn -0.8831 0.4325 0.1821
vn -0.6581 0.6031 0.4508
vn -0.7022 0.6233 0.3440
vn -0.4756 0.7441 0.4691
vn -0.4758 0.7899 0.3869
vn -0.2652 0.8520 0.4515
vn -0.2182 0.9255 0.3095
vn -0.2961 0.8950 0.3335
vn -0.3656 0.9223 -0.1254
vn -0.0000 -0.0713 0.9975
vn -0.0126 -0.0713 0.9974
vn -0.3011 0.9405 -0.1577
vn -0.0000 0.9357 -0.3529
vn -0.0000 0.9970 0.0768
vn -0.3865 0.9201 0.0639
vn -0.7773 0.5418 -0.3198
vn -0.6600 0.7271 -0.1891
vn -0.6792 0.7300 -0.0760
vn -0.8252 0.5396 -0.1666
vn -0.4834 0.8682 -0.1118
vn -0.4819 0.8762 -0.0036
vn -0.2684 0.9588 -0.0934
vn -0.2490 0.9675 0.0445
vn -0.7785 0.4181 -0.4681
vn -0.8825 0.4147 -0.2216
vn -0.5674 0.6802 -0.4641
vn -0.4328 0.8273 -0.3581
vn -0.4315 0.8662 -0.2522
vn -0.5902 0.7205 -0.3641
vn -0.2459 0.9183 -0.3103
vn -0.2263 0.9580 -0.1759
vn -0.5814 0.3828 -0.7179
vn -0.6236 0.4959 -0.6043
vn -0.6835 0.5386 -0.4928
vn -0.7092 0.4092 -0.5742
vn -0.3426 0.8699 -0.3548
vn -0.0000 0.7824 -0.6228
vn -0.0000 0.9928 -0.1195
vn -0.4623 0.8785 -0.1202
vn -0.3047 0.3613 -0.8813
vn -0.2969 0.4797 -0.8257
vn -0.0000 0.4962 -0.8682
vn -0.2382 0.5860 -0.7745
vn -0.1392 0.6485 -0.7483
vn -0.2967 0.2990 -0.9070
vn -0.1278 0.5734 -0.8092
vn -0.0000 0.2991 -0.9542
vn -0.0000 0.9916 0.1291
vn -0.0000 0.9541 -0.2996
vn -0.1456 0.4478 0.8822
vn -0.0464 0.4599 0.8868
vn -0.0000 0.4476 0.8942
vn -0.2910 0.3569 0.8877
vn -0.4170 0.2544 0.8726
vn -0.5287 0.1373 0.8376
vn -0.5715 0.0846 0.8162
vn -0.5789 0.0888 0.8105
vn -0.0000 0.8163 0.5776
vn -0.3929 0.7583 0.5203
vn -0.2404 0.8006 0.5489
vn -0.4632 0.7010 0.5422
vn -0.6468 0.5429 0.5356
vn -0.7766 0.3417 0.5292
vn -0.8167 0.2442 0.5229
vn -0.2604 0.9233 0.2825
vn -0.3890 0.8813 0.2683
vn -0.0000 0.9546 0.2980
vn -0.5031 0.8173 0.2808
vn -0.7070 0.6485 0.2820
vn -0.8560 0.4309 0.2856
vn -0.9015 0.3255 0.2851
vn -0.2075 0.9475 -0.2432
vn -0.3885 0.7681 -0.5089
vn -0.7025 0.4081 -0.5830
vn -0.7052 0.4642 -0.5359
vn -0.4698 0.8574 -0.2103
vn -0.6542 0.6788 -0.3337
vn -0.0000 0.7428 -0.6696
vn -0.1897 0.8812 -0.4331
vn -0.4134 0.5825 -0.6999
vn -0.5351 0.4128 -0.7370
vn -0.5405 0.6089 -0.5806
vn -0.0000 0.4747 -0.8801
vn -0.5253 0.3686 -0.7670
vn -0.4198 0.7924 -0.4426
vn -0.1480 0.7114 -0.6871
vn -0.3572 0.2337 -0.9043
vn -0.0000 -0.0203 -0.9998
vn -0.3062 0.3022 -0.9027
vn -0.3144 0.3301 -0.8900
vn -0.2937 0.6170 -0.7301
vn -0.3384 0.4645 -0.8184
vn -0.5863 0.0930 0.8047
vn -0.0000 -0.9657 -0.2596
vn -0.5785 -0.8156 -0.0000
vn -0.5468 -0.8033 -0.2359
vn -0.8936 -0.4108 -0.1808
vn -0.9121 -0.4099 -0.0088
vn -0.9698 -0.2435 -0.0174
vn -0.9609 -0.2205 -0.1674
vn -0.2716 -0.4788 -0.8349
vn -0.5885 -0.3368 -0.7350
vn -0.4149 -0.1652 -0.8948
vn -0.2072 -0.2750 -0.9389
vn -0.7643 -0.1737 -0.6210
vn -0.4003 -0.0910 -0.9118
vn -0.7274 -0.6629 -0.1772
vn -0.5823 -0.7603 0.2879
vn -0.1006 -0.7984 0.5937
vn -0.2123 -0.9336 -0.2885
vn -0.4508 -0.6786 0.5799
vn -0.0000 -0.8059 0.5921
vn -0.4560 -0.6755 0.5795
vn -0.7489 -0.3434 0.5667
vn -0.7354 -0.3780 0.5624
vn -0.7923 -0.2010 0.5760
vn -0.0000 -0.3066 -0.9518
vn -0.0707 -0.8533 -0.5166
vn 0.1246 -0.8415 -0.5257
vn 0.1288 -0.7769 -0.6163
vn -0.0968 -0.8294 -0.5502
vn 0.4438 -0.7653 -0.4662
vn 0.5353 -0.8446 -0.0074
vn 0.5254 -0.8507 -0.0124
vn 0.5076 -0.8583 -0.0761
vn 0.2272 -0.7992 -0.5565
vn 0.2639 -0.8712 -0.4140
vn 0.4124 -0.8782 -0.2422
vn 0.4217 -0.7891 -0.4467
vn 0.3055 -0.8932 -0.3298
vn 0.3114 -0.7527 -0.5801
vn 0.3850 -0.8637 -0.3252
vn 0.2891 -0.8018 -0.5231
vn -0.3048 -0.7778 -0.5496
vn -0.3028 -0.9083 -0.2888
vn -0.5954 -0.8032 0.0183
vn -0.4294 -0.9022 0.0395
vn 0.4044 -0.9146 -0.0000
vn 0.4305 -0.9026 -0.0000
vn -0.2653 -0.9642 -0.0000
vn -0.6024 -0.7982 -0.0000
vn -0.6390 -0.7692 -0.0000
vn -0.2741 -0.9617 -0.0000
vn -0.5458 -0.6971 -0.4650
vn -0.0000 -0.8536 -0.5209
vn -0.8771 -0.3416 -0.3377
vn -0.9365 -0.1975 -0.2896
vn -0.0000 -0.5135 -0.8581
vn -0.9204 -0.2644 0.2881
vn -0.8738 -0.4526 -0.1777
vn -0.8161 0.0603 0.5748
vn -0.9564 0.0367 -0.2898
vn 0.1045 -0.0963 0.9899
vn 0.1033 -0.1038 0.9892
vn 0.0876 -0.0989 0.9912
vn 0.5342 0.1639 0.8293
vn 0.5548 0.1638 0.8157
vn 0.4621 0.3054 0.8326
vn 0.4371 0.2862 0.8526
vn 0.0598 -0.0834 0.9947
vn 0.3305 0.4164 0.8470
vn 0.3150 0.3867 0.8667
vn 0.0287 -0.0743 0.9968
vn 0.1710 0.4851 0.8576
vn 0.1716 0.4609 0.8707
vn 0.5286 0.4050 0.7460
vn 0.2629 0.4579 0.8493
vn 0.9140 0.3992 -0.0716
vn 0.8461 0.5293 0.0622
vn 0.8354 0.4816 -0.2649
vn 0.8464 0.4198 -0.3276
vn 0.6926 0.7090 0.1326
vn 0.7146 0.6981 -0.0452
vn 0.5031 0.8509 0.1510
vn 0.4816 0.8763 0.0161
vn 0.2813 0.9521 0.1196
vn 0.2029 0.9735 -0.1058
vn 0.2930 0.9559 -0.0193
vn 0.3385 0.6834 -0.6468
vn 0.8100 0.4327 0.3959
vn 0.8831 0.4325 0.1821
vn 0.9229 0.3667 0.1176
vn 0.8974 0.3203 0.3035
vn 0.6581 0.6031 0.4508
vn 0.7022 0.6233 0.3440
vn 0.4756 0.7441 0.4691
vn 0.4758 0.7899 0.3869
vn 0.2652 0.8520 0.4515
vn 0.2182 0.9255 0.3095
vn 0.2961 0.8950 0.3335
vn 0.3656 0.9223 -0.1254
vn 0.0126 -0.0713 0.9974
vn 0.3011 0.9405 -0.1577
vn 0.3865 0.9201 0.0639
vn 0.7773 0.5418 -0.3198
vn 0.8252 0.5396 -0.1666
vn 0.6792 0.7300 -0.0760
vn 0.6600 0.7271 -0.1891
vn 0.4819 0.8762 -0.0036
vn 0.4834 0.8682 -0.1118
vn 0.2490 0.9675 0.0445
vn 0.2684 0.9588 -0.0934
vn 0.7785 0.4181 -0.4681
vn 0.8825 0.4147 -0.2216
vn 0.5674 0.6802 -0.4641
vn 0.5902 0.7205 -0.3641
vn 0.4315 0.8662 -0.2522
vn 0.4328 0.8273 -0.3581
vn 0.2263 0.9580 -0.1759
vn 0.2459 0.9183 -0.3103
vn 0.5814 0.3828 -0.7179
vn 0.7092 0.4092 -0.5742
vn 0.6835 0.5386 -0.4928
vn 0.6236 0.4959 -0.6043
vn 0.3426 0.8699 -0.3548
vn 0.4623 0.8785 -0.1202
vn 0.3047 0.3613 -0.8813
vn 0.2969 0.4797 -0.8257
vn 0.2382 0.5860 -0.7745
vn 0.1392 0.6485 -0.7483
vn 0.2967 0.2990 -0.9070
vn 0.1278 0.5734 -0.8092
vn 0.1456 0.4478 0.8822
vn 0.0464 0.4599 0.8868
vn 0.2910 0.3569 0.8877
vn 0.4170 0.2544 0.8726
vn 0.5287 0.1373 0.8376
vn 0.5715 0.0846 0.8162
vn 0.5789 0.0888 0.8105
vn 0.3929 0.7583 0.5203
vn 0.2404 0.8006 0.5489
vn 0.4632 0.7010 0.5422
vn 0.6468 0.5429 0.5357
vn 0.7766 0.3417 0.5292
vn 0.8167 0.2442 0.5229
vn 0.2604 0.9233 0.2825
vn 0.3890 0.8813 0.2683
vn 0.5031 0.8173 0.2808
vn 0.7070 0.6485 0.2820
vn 0.8560 0.4309 0.2856
vn 0.9015 0.3255 0.2851
vn 0.2075 0.9475 -0.2432
vn 0.3885 0.7681 -0.5089
vn 0.7025 0.4081 -0.5830
vn 0.7052 0.4642 -0.5359
vn 0.4698 0.8574 -0.2103
vn 0.6542 0.6788 -0.3337
vn 0.1897 0.8812 -0.4331
vn 0.4134 0.5825 -0.6999
vn 0.5351 0.4128 -0.7370
vn 0.5405 0.6089 -0.5806
vn 0.5253 0.3686 -0.7670
vn 0.4198 0.7924 -0.4425
vn 0.1480 0.7114 -0.6871
vn 0.3572 0.2337 -0.9043
vn 0.3062 0.3022 -0.9027
vn 0.3144 0.3301 -0.8900
vn 0.2937 0.6170 -0.7301
vn 0.3384 0.4645 -0.8184
vn 0.5863 0.0930 0.8047
vn 0.5468 -0.8033 -0.2359
vn 0.5785 -0.8156 -0.0000
vn 0.8936 -0.4108 -0.1808
vn 0.9609 -0.2205 -0.1674
vn 0.9698 -0.2435 -0.0174
vn 0.9121 -0.4099 -0.0088
vn 0.2716 -0.4788 -0.8349
vn 0.2072 -0.2750 -0.9389
vn 0.4149 -0.1652 -0.8948
vn 0.5885 -0.3368 -0.7350
vn 0.4003 -0.0910 -0.9118
vn 0.7643 -0.1737 -0.6210
vn 0.7274 -0.6629 -0.1772
vn 0.2123 -0.9336 -0.2885
vn 0.1006 -0.7984 0.5937
vn 0.5823 -0.7603 0.2879
vn 0.4508 -0.6786 0.5799
vn 0.4560 -0.6755 0.5795
vn 0.7489 -0.3434 0.5667
vn 0.7354 -0.3780 0.5624
vn 0.7923 -0.2010 0.5760
vn 0.0707 -0.8533 -0.5166
vn 0.0968 -0.8294 -0.5502
vn -0.1288 -0.7769 -0.6163
vn -0.1246 -0.8415 -0.5257
vn -0.4438 -0.7653 -0.4662
vn -0.5076 -0.8583 -0.0761
vn -0.5254 -0.8507 -0.0124
vn -0.5353 -0.8446 -0.0074
vn -0.2639 -0.8712 -0.4140
vn -0.2272 -0.7992 -0.5565
vn -0.4124 -0.8782 -0.2422
vn -0.4217 -0.7891 -0.4467
vn -0.3055 -0.8932 -0.3298
vn -0.2891 -0.8018 -0.5231
vn -0.3850 -0.8637 -0.3252
vn -0.3114 -0.7527 -0.5801
vn 0.3048 -0.7778 -0.5496
vn 0.3028 -0.9083 -0.2888
vn 0.5954 -0.8032 0.0183
vn 0.4294 -0.9022 0.0395
vn -0.4044 -0.9146 -0.0000
vn -0.4305 -0.9026 -0.0000
vn 0.2653 -0.9642 -0.0000
vn 0.2741 -0.9617 -0.0000
vn 0.6390 -0.7692 -0.0000
vn 0.6024 -0.7982 -0.0000
vn 0.5458 -0.6971 -0.4650
vn 0.8771 -0.3416 -0.3377
vn 0.9365 -0.1975 -0.2896
vn 0.9204 -0.2644 0.2881
vn 0.8738 -0.4526 -0.1777
vn 0.9564 0.0367 -0.2898
vn 0.8161 0.0603 0.5748
vt 0.951253 0.126264
vt 0.933858 0.090729
vt 0.916829 0.063574
vt 0.921525 0.040923
vt 0.918403 0.211652
vt 0.914450 0.188443
vt 0.932757 0.161441
vt 0.912570 0.144432
vt 0.910963 0.718822
vt 0.900639 0.120674
vt 0.929759 0.711806
vt 0.905523 0.110969
vt 0.962647 0.715464
vt 0.938394 0.708448
vt 0.679236 0.264027
vt 0.696038 0.256650
vt 0.699648 0.260597
vt 0.871264 0.054126
vt 0.704995 0.260837
vt 0.875961 0.031476
vt 0.871715 0.219605
vt 0.708933 0.257220
vt 0.867761 0.196396
vt 0.709117 0.251851
vt 0.863807 0.173187
vt 0.705450 0.248013
vt 0.860822 0.148442
vt 0.700208 0.247770
vt 0.910963 0.745798
vt 0.866798 0.118461
vt 0.932488 0.795533
vt 0.696283 0.251326
vt 0.867756 0.106866
vt 0.941123 0.795533
vt 0.962647 0.745798
vt 0.693073 0.257739
vt 0.698322 0.263468
vt 0.706089 0.263802
vt 0.711819 0.258538
vt 0.712163 0.250668
vt 0.706677 0.245285
vt 0.699152 0.244834
vt 0.693430 0.249995
vt 0.706768 0.335570
vt 0.713812 0.338488
vt 0.706768 0.341406
vt 0.710895 0.345532
vt 0.716730 0.345532
vt 0.720856 0.341406
vt 0.720856 0.335570
vt 0.716730 0.331444
vt 0.710895 0.331444
vt 0.903537 0.125740
vt 0.913217 0.106851
vt 0.862759 0.100870
vt 0.860822 0.123707
vt 0.935283 0.755286
vt 0.938327 0.754102
vt 0.938327 0.764798
vt 0.935283 0.764798
vt 0.893939 0.326447
vt 0.914288 0.360378
vt 0.933560 0.385990
vt 0.930804 0.408957
vt 0.919423 0.238580
vt 0.925332 0.261370
vt 0.909383 0.289828
vt 0.930940 0.305062
vt 0.910963 0.718822
vt 0.944845 0.327722
vt 0.929759 0.711806
vt 0.940803 0.337806
vt 0.962647 0.715464
vt 0.938394 0.708448
vt 0.617810 0.281319
vt 0.634576 0.273861
vt 0.638205 0.277791
vt 0.979763 0.391535
vt 0.643553 0.278005
vt 0.977006 0.414503
vt 0.965268 0.226692
vt 0.647473 0.274369
vt 0.971177 0.249482
vt 0.647631 0.268999
vt 0.977087 0.272272
vt 0.643946 0.265179
vt 0.982162 0.296674
vt 0.638703 0.264961
vt 0.910963 0.745798
vt 0.978752 0.327054
vt 0.932488 0.795533
vt 0.634795 0.268536
vt 0.978781 0.338689
vt 0.941122 0.795533
vt 0.962647 0.745798
vt 0.631616 0.274964
vt 0.636893 0.280668
vt 0.644662 0.280964
vt 0.650366 0.275673
vt 0.650672 0.267802
vt 0.645160 0.262445
vt 0.637633 0.262030
vt 0.631936 0.267219
vt 0.720856 0.341406
vt 0.713812 0.338488
vt 0.716730 0.345532
vt 0.710895 0.345532
vt 0.706768 0.341406
vt 0.706768 0.335570
vt 0.710895 0.331444
vt 0.716730 0.331444
vt 0.720856 0.335570
vt 0.941528 0.322920
vt 0.933486 0.342562
vt 0.984269 0.344239
vt 0.984262 0.321319
vt 0.935283 0.755286
vt 0.938327 0.754102
vt 0.938327 0.764798
vt 0.935283 0.764798
vt 0.607879 0.956182
vt 0.607879 0.940114
vt 0.607879 0.924046
vt 0.607879 0.907979
vt 0.607879 0.891911
vt 0.607879 0.875843
vt 0.607879 0.859775
vt 0.607879 0.843707
vt 0.607879 0.827640
vt 0.607879 0.811572
vt 0.607879 0.795504
vt 0.607879 0.988318
vt 0.607879 0.972250
vt 0.686107 0.173070
vt 0.733171 0.956182
vt 0.688078 0.195212
vt 0.693195 0.176990
vt 0.706041 0.195178
vt 0.701284 0.176822
vt 0.721621 0.186063
vt 0.708167 0.172614
vt 0.730536 0.170120
vt 0.712001 0.165511
vt 0.729916 0.152006
vt 0.711934 0.157459
vt 0.720664 0.137160
vt 0.707773 0.150520
vt 0.705551 0.128668
vt 0.700682 0.146609
vt 0.687971 0.128668
vt 0.692618 0.146777
vt 0.672596 0.137493
vt 0.685699 0.150950
vt 0.663655 0.152897
vt 0.681784 0.158028
vt 0.663629 0.170756
vt 0.681932 0.166125
vt 0.692232 0.180834
vt 0.683346 0.175913
vt 0.702386 0.180625
vt 0.711021 0.175315
vt 0.715807 0.166461
vt 0.715746 0.156410
vt 0.710562 0.147644
vt 0.701631 0.142782
vt 0.691533 0.142988
vt 0.682865 0.148202
vt 0.677949 0.157061
vt 0.678121 0.167206
vt 0.662540 0.345404
vt 0.650905 0.333769
vt 0.666798 0.338027
vt 0.655163 0.349662
vt 0.646646 0.349662
vt 0.639270 0.345404
vt 0.635012 0.338027
vt 0.635012 0.329510
vt 0.639270 0.322134
vt 0.646646 0.317876
vt 0.655163 0.317876
vt 0.662540 0.322134
vt 0.666798 0.329510
vt 0.607879 0.827640
vt 0.607879 0.843708
vt 0.607879 0.859775
vt 0.607879 0.875843
vt 0.607879 0.891911
vt 0.607879 0.907979
vt 0.607879 0.924046
vt 0.607879 0.940114
vt 0.607879 0.956182
vt 0.607879 0.972250
vt 0.607879 0.988318
vt 0.607879 0.795504
vt 0.607879 0.811572
vt 0.686099 0.173065
vt 0.733171 0.827640
vt 0.688028 0.195211
vt 0.693179 0.176999
vt 0.705992 0.195211
vt 0.701269 0.176846
vt 0.721591 0.186125
vt 0.708160 0.172649
vt 0.730536 0.170195
vt 0.712007 0.165552
vt 0.729947 0.152077
vt 0.711954 0.157499
vt 0.720719 0.137213
vt 0.707805 0.150552
vt 0.705618 0.128695
vt 0.700720 0.146629
vt 0.688037 0.128668
vt 0.692657 0.146783
vt 0.672651 0.137472
vt 0.685734 0.150950
vt 0.663688 0.152858
vt 0.681805 0.158021
vt 0.663628 0.170711
vt 0.681935 0.166115
vt 0.692209 0.180842
vt 0.683333 0.175903
vt 0.702363 0.180651
vt 0.711009 0.175356
vt 0.715812 0.166509
vt 0.715769 0.156457
vt 0.710599 0.147681
vt 0.701676 0.142804
vt 0.691578 0.142994
vt 0.682903 0.148196
vt 0.677972 0.157046
vt 0.678123 0.167189
vt 0.662540 0.345404
vt 0.650905 0.333769
vt 0.655164 0.349662
vt 0.666798 0.338027
vt 0.666798 0.329510
vt 0.662540 0.322134
vt 0.655164 0.317876
vt 0.646646 0.317876
vt 0.639270 0.322134
vt 0.635012 0.329510
vt 0.635012 0.338027
vt 0.639270 0.345404
vt 0.646646 0.349662
vt 0.596967 0.743845
vt 0.755423 0.743569
vt 0.809058 0.720219
vt 0.809071 0.720603
vt 0.539406 0.735620
vt 0.596939 0.743855
vt 0.755395 0.743858
vt 0.586497 0.538148
vt 0.586831 0.538141
vt 0.562619 0.533184
vt 0.562961 0.533135
vt 0.586334 0.510363
vt 0.583650 0.497496
vt 0.583245 0.497509
vt 0.586716 0.510355
vt 0.674496 0.539335
vt 0.674165 0.539188
vt 0.689630 0.520839
vt 0.689993 0.521013
vt 0.662635 0.511498
vt 0.660457 0.497631
vt 0.660053 0.497509
vt 0.662254 0.511372
vt 0.872472 0.692286
vt 0.850447 0.692615
vt 0.831922 0.682471
vt 0.816981 0.665486
vt 0.816981 0.642082
vt 0.828468 0.622727
vt 0.847367 0.612128
vt 0.868198 0.612205
vt 0.888956 0.619905
vt 0.899891 0.639682
vt 0.899315 0.661104
vt 0.888914 0.678534
vt 0.943786 0.958041
vt 0.862808 0.661749
vt 0.934277 0.971357
vt 0.937814 0.958070
vt 0.923023 0.964935
vt 0.932678 0.955023
vt 0.916341 0.953583
vt 0.929769 0.949818
vt 0.916341 0.940197
vt 0.929851 0.943869
vt 0.923154 0.928811
vt 0.932771 0.938736
vt 0.934399 0.922479
vt 0.937942 0.935761
vt 0.947292 0.922375
vt 0.943935 0.935790
vt 0.958790 0.928777
vt 0.949068 0.938814
vt 0.965604 0.940386
vt 0.952008 0.943989
vt 0.965397 0.953814
vt 0.951995 0.949940
vt 0.958655 0.964999
vt 0.948994 0.955128
vt 0.937055 0.960922
vt 0.944524 0.960824
vt 0.930590 0.957067
vt 0.926945 0.950535
vt 0.927094 0.943128
vt 0.930720 0.936708
vt 0.937175 0.932880
vt 0.944708 0.932968
vt 0.951151 0.936768
vt 0.954772 0.943249
vt 0.954828 0.950681
vt 0.951081 0.957230
vt 0.727803 0.309512
vt 0.724664 0.297795
vt 0.733241 0.306372
vt 0.721524 0.309512
vt 0.716087 0.306372
vt 0.712947 0.300935
vt 0.712947 0.294656
vt 0.716087 0.289218
vt 0.721524 0.286079
vt 0.727803 0.286079
vt 0.733241 0.289218
vt 0.736380 0.294656
vt 0.736380 0.300935
vt 0.498382 0.281480
vt 0.300211 0.223617
vt 0.304685 0.175176
vt 0.309990 0.126291
vt 0.316267 0.075535
vt 0.608355 0.096792
vt 0.565179 0.149915
vt 0.078075 0.157265
vt 0.147428 0.179039
vt 0.081344 0.130463
vt 0.151273 0.141809
vt 0.080209 0.103699
vt 0.151553 0.103983
vt 0.074673 0.076757
vt 0.148999 0.064898
vt 0.531073 0.392482
vt 0.418057 0.197029
vt 0.420452 0.162295
vt 0.426795 0.127737
vt 0.436787 0.092717
vt 0.584066 0.451497
vt 0.483264 0.157876
vt 0.484058 0.140261
vt 0.488447 0.123042
vt 0.496365 0.106419
vt 0.643271 0.074236
vt 0.034992 0.143080
vt 0.037783 0.125211
vt 0.037372 0.107459
vt 0.033589 0.090634
vt 0.325347 0.030887
vt 0.148353 0.030426
vt 0.068009 0.053266
vt 0.449813 0.063132
vt 0.506972 0.093350
vt 0.027700 0.078306
vt 0.641278 0.075224
vt 0.037612 0.143202
vt 0.040383 0.125284
vt 0.039912 0.107463
vt 0.035983 0.090507
vt 0.029977 0.078048
vt 0.080061 0.156571
vt 0.608079 0.098938
vt 0.083186 0.130141
vt 0.082048 0.103740
vt 0.076717 0.077220
vt 0.070351 0.054614
vt 0.150976 0.066106
vt 0.566587 0.152262
vt 0.149434 0.177771
vt 0.153076 0.141303
vt 0.153336 0.104257
vt 0.150330 0.033054
vt 0.320325 0.078057
vt 0.305074 0.219737
vt 0.309068 0.173292
vt 0.314076 0.126460
vt 0.503664 0.286498
vt 0.328870 0.036199
vt 0.423738 0.160385
vt 0.429689 0.127669
vt 0.439255 0.094629
vt 0.536404 0.395631
vt 0.421624 0.193288
vt 0.451333 0.067175
vt 0.485105 0.155635
vt 0.485810 0.139058
vt 0.489952 0.122847
vt 0.497425 0.107250
vt 0.587337 0.452722
vt 0.507200 0.095279
vt 0.702016 0.074236
vt 0.464290 0.803478
vt 0.451742 0.832103
vt 0.453131 0.862707
vt 0.780233 0.895329
vt 0.144902 0.903290
vt 0.855652 0.991400
vt 0.145337 0.881506
vt 0.876466 0.995040
vt 0.987541 0.895328
vt 0.117424 0.792217
vt 0.028201 0.912715
vt 0.029029 0.880632
vt 0.019282 0.835459
vt 0.566907 0.297353
vt 0.617886 0.098119
vt 0.603803 0.157899
vt 0.573997 0.403832
vt 0.590837 0.425973
vt 0.640752 0.085384
vt 0.617610 0.100463
vt 0.605211 0.160247
vt 0.572189 0.302371
vt 0.579328 0.406981
vt 0.594108 0.427198
vt 0.642746 0.084395
vt 0.701491 0.084395
vt 0.780233 0.787220
vt 0.254873 0.907431
vt 0.855489 0.749713
vt 0.374509 0.905235
vt 0.256198 0.885683
vt 0.987541 0.787220
vt 0.876465 0.747175
vt 0.380655 0.851588
vt 0.402507 0.787644
vt 0.295390 0.777210
vt 0.121110 0.926215
vt 0.120995 0.856426
vt 0.277649 0.932723
vt 0.282236 0.862196
vt 0.877823 0.896357
vt 0.888172 0.896357
vt 0.877823 0.888777
vt 0.888172 0.888777
vt 0.708711 0.074582
vt 0.682466 0.414580
vt 0.327371 0.022834
vt 0.303450 0.530724
vt 0.857963 0.177418
vt 0.328611 0.329681
vt 0.320531 0.377653
vt 0.313141 0.426266
vt 0.306212 0.476937
vt 0.148169 0.022834
vt 0.130224 0.484836
vt 0.062513 0.046447
vt 0.053471 0.440077
vt 0.778132 0.376994
vt 0.812497 0.317789
vt 0.096891 0.336939
vt 0.169507 0.333649
vt 0.093187 0.363684
vt 0.163690 0.370623
vt 0.085236 0.389265
vt 0.154274 0.407259
vt 0.072987 0.413892
vt 0.141798 0.444387
vt 0.452653 0.056023
vt 0.433054 0.530724
vt 0.808364 0.072871
vt 0.435719 0.385560
vt 0.429140 0.419749
vt 0.426422 0.454778
vt 0.427114 0.491190
vt 0.510302 0.086676
vt 0.496631 0.515855
vt 0.746817 0.022840
vt 0.488726 0.440104
vt 0.484983 0.457336
vt 0.484816 0.475104
vt 0.488214 0.493201
vt 0.643056 0.479960
vt 0.684109 0.003923
vt 0.834758 0.581308
vt 0.747160 0.404719
vt 0.051612 0.339618
vt 0.049733 0.357607
vt 0.044791 0.374661
vt 0.036825 0.389956
vt 0.303555 0.522421
vt 0.132346 0.477544
vt 0.060529 0.434893
vt 0.432129 0.523124
vt 0.495121 0.508550
vt 0.027976 0.400365
vt 0.028835 0.075790
vt 0.028429 0.403088
vt 0.748975 0.403432
vt 0.054175 0.340172
vt 0.052266 0.358202
vt 0.047247 0.375308
vt 0.039107 0.390693
vt 0.030111 0.401197
vt 0.069973 0.050299
vt 0.061669 0.438263
vt 0.098633 0.338118
vt 0.778070 0.374831
vt 0.094885 0.364467
vt 0.087025 0.389696
vt 0.075081 0.413966
vt 0.063139 0.434189
vt 0.144018 0.443726
vt 0.151409 0.026951
vt 0.134410 0.481685
vt 0.810741 0.315690
vt 0.171121 0.335389
vt 0.165304 0.371573
vt 0.156068 0.407450
vt 0.134930 0.475510
vt 0.310780 0.475538
vt 0.331228 0.029149
vt 0.308795 0.525607
vt 0.332318 0.334677
vt 0.324286 0.380596
vt 0.317134 0.427149
vt 0.851963 0.173285
vt 0.308322 0.518188
vt 0.454061 0.062779
vt 0.436145 0.524553
vt 0.431828 0.422436
vt 0.429202 0.455586
vt 0.429989 0.489974
vt 0.802606 0.070592
vt 0.438209 0.390089
vt 0.434634 0.519605
vt 0.489932 0.442742
vt 0.486368 0.458947
vt 0.509423 0.093523
vt 0.497534 0.509010
vt 0.486221 0.475678
vt 0.489451 0.492669
vt 0.743395 0.022140
vt 0.495835 0.506744
vt 0.689134 0.413879
vt 0.463566 0.745793
vt 0.451590 0.716924
vt 0.453586 0.686353
vt 0.110850 0.986138
vt 0.113826 0.556144
vt 0.780233 0.895329
vt 0.146225 0.639652
vt 0.855652 0.991401
vt 0.146227 0.661440
vt 0.876465 0.995041
vt 0.987541 0.895329
vt 0.116546 0.750157
vt 0.468461 0.890367
vt 0.469463 0.659004
vt 0.525173 0.829283
vt 0.524951 0.721203
vt 0.019282 0.943009
vt 0.021419 0.597444
vt 0.029735 0.627910
vt 0.029925 0.660002
vt 0.019282 0.704973
vt 0.787801 0.172424
vt 0.768511 0.377170
vt 0.773101 0.315925
vt 0.764195 0.068352
vt 0.744109 0.049108
vt 0.747910 0.393314
vt 0.768418 0.374811
vt 0.771344 0.313825
vt 0.781801 0.168291
vt 0.758438 0.066074
vt 0.649827 0.454437
vt 0.681401 0.030191
vt 0.740686 0.048408
vt 0.708186 0.084742
vt 0.681401 0.404463
vt 0.746095 0.394601
vt 0.688068 0.403761
vt 0.283743 0.989575
vt 0.286754 0.556144
vt 0.389982 0.950497
vt 0.392195 0.597326
vt 0.780233 0.787220
vt 0.256257 0.637698
vt 0.855488 0.749713
vt 0.375826 0.642271
vt 0.257150 0.659468
vt 0.987541 0.787221
vt 0.876465 0.747175
vt 0.380904 0.696029
vt 0.401481 0.760396
vt 0.294177 0.768698
vt 0.122893 0.616259
vt 0.121392 0.686032
vt 0.279532 0.612864
vt 0.282715 0.683468
vt 0.877822 0.896358
vt 0.888171 0.896358
vt 0.877822 0.888777
vt 0.888171 0.888777
vt 0.693016 0.277689
vt 0.866568 0.076777
vt 0.693073 0.257739
vt 0.698322 0.263468
vt 0.712351 0.277562
vt 0.706089 0.263802
vt 0.725839 0.263920
vt 0.711819 0.258538
vt 0.725931 0.245034
vt 0.712163 0.250668
vt 0.712630 0.231429
vt 0.706677 0.245285
vt 0.693106 0.230944
vt 0.699152 0.244834
vt 0.679236 0.244593
vt 0.693430 0.249995
vt 0.617251 0.210292
vt 0.616463 0.210153
vt 0.616004 0.209464
vt 0.616166 0.208618
vt 0.616797 0.208099
vt 0.617585 0.208237
vt 0.618043 0.208927
vt 0.617882 0.209772
vt 0.623398 0.224519
vt 0.610653 0.224519
vt 0.601714 0.215471
vt 0.601774 0.202822
vt 0.610650 0.193872
vt 0.623395 0.193872
vt 0.632333 0.202919
vt 0.632274 0.215568
vt 0.631655 0.294914
vt 0.982519 0.368568
vt 0.631616 0.274964
vt 0.636893 0.280668
vt 0.650989 0.294694
vt 0.644662 0.280964
vt 0.664412 0.280988
vt 0.650366 0.275673
vt 0.664412 0.262102
vt 0.650672 0.267802
vt 0.651046 0.248561
vt 0.645160 0.262445
vt 0.631519 0.248170
vt 0.637633 0.262030
vt 0.617716 0.261885
vt 0.631936 0.267219
vt 0.616780 0.210277
vt 0.617589 0.210126
vt 0.618074 0.209432
vt 0.617940 0.208594
vt 0.617305 0.208099
vt 0.616517 0.208258
vt 0.616061 0.208980
vt 0.616129 0.209806
vt 0.610663 0.224523
vt 0.623397 0.224507
vt 0.632344 0.215510
vt 0.632344 0.202849
vt 0.623413 0.193867
vt 0.610672 0.193917
vt 0.601776 0.202925
vt 0.601703 0.215479
vt 0.672560 0.186255
vt 0.733171 0.940114
vt 0.692232 0.180834
vt 0.683346 0.175913
vt 0.733171 0.924046
vt 0.702386 0.180625
vt 0.733171 0.907978
vt 0.711021 0.175315
vt 0.733171 0.891911
vt 0.715807 0.166461
vt 0.733171 0.875843
vt 0.715746 0.156410
vt 0.733171 0.859775
vt 0.710562 0.147644
vt 0.733171 0.843707
vt 0.701631 0.142782
vt 0.733171 0.827640
vt 0.691533 0.142988
vt 0.733171 0.811572
vt 0.682865 0.148202
vt 0.733171 0.795504
vt 0.733171 0.988318
vt 0.677949 0.157061
vt 0.733171 0.972250
vt 0.678121 0.167206
vt 0.545116 0.081436
vt 0.558312 0.088883
vt 0.537290 0.067467
vt 0.540568 0.052277
vt 0.549657 0.042263
vt 0.561302 0.036251
vt 0.575574 0.036666
vt 0.586472 0.045735
vt 0.590990 0.057617
vt 0.590990 0.069952
vt 0.584623 0.081451
vt 0.572783 0.088616
vt 0.557783 0.069271
vt 0.562619 0.072649
vt 0.555426 0.063935
vt 0.555626 0.058394
vt 0.558848 0.053751
vt 0.564107 0.051610
vt 0.569805 0.052593
vt 0.574770 0.055367
vt 0.577496 0.060357
vt 0.577041 0.065964
vt 0.573765 0.070629
vt 0.568498 0.073113
vt 0.672529 0.186225
vt 0.733171 0.843708
vt 0.692209 0.180842
vt 0.683333 0.175903
vt 0.733171 0.859775
vt 0.702363 0.180651
vt 0.733171 0.875843
vt 0.711009 0.175356
vt 0.733171 0.891911
vt 0.715812 0.166509
vt 0.733171 0.907979
vt 0.715769 0.156457
vt 0.733171 0.924047
vt 0.710599 0.147681
vt 0.733171 0.940114
vt 0.701676 0.142804
vt 0.733171 0.956182
vt 0.691578 0.142994
vt 0.733171 0.972250
vt 0.682903 0.148196
vt 0.733171 0.988318
vt 0.733171 0.795504
vt 0.677972 0.157046
vt 0.733171 0.811572
vt 0.678123 0.167189
vt 0.833695 0.966035
vt 0.820287 0.973095
vt 0.841924 0.952300
vt 0.839090 0.937021
vt 0.830296 0.926746
vt 0.818831 0.920398
vt 0.804553 0.920398
vt 0.793396 0.929145
vt 0.788534 0.940890
vt 0.788175 0.953220
vt 0.794204 0.964900
vt 0.805830 0.972407
vt 0.821387 0.953507
vt 0.816455 0.956742
vt 0.823898 0.948241
vt 0.823859 0.942697
vt 0.820775 0.937962
vt 0.815580 0.935669
vt 0.809856 0.936486
vt 0.804812 0.939113
vt 0.801942 0.944023
vt 0.802233 0.949640
vt 0.805372 0.954398
vt 0.810565 0.957035
vt 0.586497 0.538148
vt 0.586334 0.510363
vt 0.583245 0.497509
vt 0.583650 0.497496
vt 0.586716 0.510355
vt 0.586831 0.538141
vt 0.674496 0.539335
vt 0.662635 0.511498
vt 0.660457 0.497631
vt 0.660053 0.497509
vt 0.662254 0.511372
vt 0.674165 0.539188
vt 0.596939 0.743855
vt 0.596967 0.743845
vt 0.755423 0.743569
vt 0.755395 0.743858
vt 0.947305 0.971443
vt 0.857085 0.662666
vt 0.937055 0.960922
vt 0.944524 0.960824
vt 0.851741 0.660382
vt 0.930590 0.957067
vt 0.848752 0.655692
vt 0.926945 0.950535
vt 0.848229 0.649949
vt 0.927094 0.943128
vt 0.850723 0.644607
vt 0.930720 0.936708
vt 0.855608 0.641154
vt 0.937175 0.932880
vt 0.861588 0.640531
vt 0.944708 0.932968
vt 0.866813 0.643543
vt 0.951151 0.936768
vt 0.870135 0.648124
vt 0.954772 0.943249
vt 0.870584 0.653789
vt 0.954828 0.950681
vt 0.867893 0.658911
vt 0.951081 0.957230
vt 0.803837 0.781128
vt 0.814298 0.781128
vt 0.794130 0.775442
vt 0.790635 0.764987
vt 0.792533 0.755500
vt 0.797416 0.747499
vt 0.806030 0.742245
vt 0.815925 0.743533
vt 0.824228 0.748098
vt 0.829528 0.756618
vt 0.829870 0.767205
vt 0.824473 0.777051
vt 0.807432 0.769406
vt 0.811773 0.769811
vt 0.803969 0.766934
vt 0.802098 0.763332
vt 0.802462 0.759159
vt 0.805095 0.755782
vt 0.808778 0.753632
vt 0.812958 0.753698
vt 0.816419 0.756009
vt 0.818248 0.759799
vt 0.817919 0.764053
vt 0.815454 0.767559
vt 0.298812 0.272883
vt 0.298812 0.272883
vt 0.300211 0.223617
vt 0.304685 0.175176
vt 0.309990 0.126291
vt 0.316267 0.075535
vt 0.325347 0.030887
vt 0.327371 0.022834
vt 0.303450 0.530724
vt 0.147428 0.179039
vt 0.142641 0.216228
vt 0.142641 0.216228
vt 0.073724 0.182824
vt 0.071510 0.184019
vt 0.071510 0.184019
vt 0.078075 0.157265
vt 0.151273 0.141809
vt 0.081344 0.130463
vt 0.151553 0.103983
vt 0.080209 0.103699
vt 0.148999 0.064898
vt 0.074673 0.076757
vt 0.148353 0.030426
vt 0.068009 0.053266
vt 0.062513 0.046447
vt 0.053471 0.440077
vt 0.144898 0.214025
vt 0.420779 0.231834
vt 0.420779 0.231834
vt 0.418057 0.197029
vt 0.420452 0.162295
vt 0.426795 0.127737
vt 0.436787 0.092717
vt 0.449813 0.063132
vt 0.452653 0.056023
vt 0.433054 0.530724
vt 0.304140 0.266532
vt 0.486307 0.175506
vt 0.486307 0.175506
vt 0.483264 0.157876
vt 0.484058 0.140261
vt 0.488447 0.123042
vt 0.496365 0.106419
vt 0.506972 0.093350
vt 0.510302 0.086676
vt 0.496631 0.515855
vt 0.424393 0.226043
vt 0.488045 0.172157
vt 0.031600 0.160605
vt 0.028997 0.160394
vt 0.686913 0.468449
vt 0.702760 0.505611
vt 0.727572 0.537495
vt 0.759739 0.561937
vt 0.797107 0.577294
vt 0.830978 0.581727
vt 0.026771 0.077106
vt 0.026771 0.401287
vt 0.148169 0.022834
vt 0.130224 0.484836
vt 0.534094 0.123673
vt 0.529103 0.486183
vt 0.834758 0.390500
vt 0.817408 0.390443
vt 0.110850 0.986138
vt 0.113826 0.556144
vt 0.121110 0.926215
vt 0.120995 0.856426
vt 0.117424 0.792217
vt 0.374509 0.905235
vt 0.389982 0.950497
vt 0.392195 0.597326
vt 0.380655 0.851588
vt 0.402507 0.787644
vt 0.339873 0.281700
vt 0.339873 0.281700
vt 0.328611 0.329681
vt 0.320531 0.377653
vt 0.313141 0.426266
vt 0.306212 0.476937
vt 0.303555 0.522421
vt 0.169507 0.333649
vt 0.174402 0.296475
vt 0.174402 0.296475
vt 0.099229 0.311118
vt 0.097395 0.309396
vt 0.097395 0.309396
vt 0.096891 0.336939
vt 0.163690 0.370623
vt 0.093187 0.363684
vt 0.154274 0.407259
vt 0.085236 0.389265
vt 0.141798 0.444387
vt 0.072987 0.413892
vt 0.132346 0.477544
vt 0.060529 0.434893
vt 0.176020 0.299181
vt 0.447263 0.352612
vt 0.447263 0.352612
vt 0.435719 0.385560
vt 0.429140 0.419749
vt 0.426422 0.454778
vt 0.427114 0.491190
vt 0.432129 0.523124
vt 0.343398 0.289203
vt 0.496182 0.423841
vt 0.496182 0.423841
vt 0.488726 0.440104
vt 0.484983 0.457336
vt 0.484816 0.475104
vt 0.488214 0.493201
vt 0.495121 0.508550
vt 0.449273 0.359135
vt 0.497004 0.427524
vt 0.052820 0.321809
vt 0.050250 0.321346
vt 0.982603 0.468449
vt 0.966756 0.505611
vt 0.941944 0.537495
vt 0.909776 0.561937
vt 0.872409 0.577294
vt 0.838538 0.581727
vt 0.852108 0.390443
vt 0.122893 0.616259
vt 0.121392 0.686032
vt 0.116546 0.750157
vt 0.375826 0.642271
vt 0.380904 0.696029
vt 0.401481 0.760396
s 1
f 2/2/1 543/607/2 13/18/3 3/3/4
f 44/54/5 45/55/6 543/607/2 2/2/1
f 3/3/4 13/18/3 15/20/7 4/4/7
f 563/627/3 562/626/2 570/634/2 571/635/3
f 4/5/7 15/21/7 17/23/8 5/6/9
f 565/629/8 564/628/7 572/636/7 573/637/8
f 5/6/9 17/23/8 19/25/10 6/7/11
f 560/624/12 559/623/13 567/631/13 568/632/12
f 1/1/14 6/7/11 7/8/15
f 6/7/11 19/25/10 21/27/13 7/8/15
f 562/626/2 561/625/6 569/633/6 570/634/2
f 1/1/14 7/8/15 43/53/16
f 7/8/15 21/27/13 46/56/12 43/53/16
f 564/628/7 563/627/3 571/635/3 572/636/7
f 1/1/14 43/53/16 44/54/5
f 8/9/17 23/29/18 50/60/19 47/57/20
f 1/1/14 44/54/5 2/2/1
f 558/622/10 565/629/8 573/637/8 566/630/10
f 559/623/13 558/622/10 566/630/10 567/631/13
f 542/606/21 10/15/22 544/608/22 545/609/21
f 546/610/23 542/606/21 545/609/21 547/611/23
f 548/612/24 546/610/23 547/611/23 549/613/24
f 550/614/25 548/612/24 549/613/24 551/615/25
f 552/616/26 550/614/25 551/615/25 553/617/26
f 554/618/27 552/616/26 553/617/26 555/619/27
f 556/620/28 554/618/27 555/619/27 557/621/28
f 10/15/22 556/620/28 557/621/28 544/608/22
f 561/625/6 560/624/12 568/632/12 569/633/6
f 11/16/29 12/17/29 27/37/29 26/36/29
f 12/17/29 14/19/29 28/38/29 27/37/29
f 14/19/29 16/22/29 29/39/29 28/38/29
f 16/22/29 18/24/29 30/40/29 29/39/29
f 18/24/29 20/26/29 31/41/29 30/40/29
f 20/26/29 22/28/29 32/42/29 31/41/29
f 22/28/29 24/32/29 33/43/29 32/42/29
f 24/32/29 11/16/29 26/36/29 33/43/29
f 35/45/29 39/49/29 38/48/29
f 35/45/29 40/50/29 39/49/29
f 35/45/29 41/51/29 40/50/29
f 35/45/29 42/52/29 41/51/29
f 35/45/29 34/44/29 42/52/29
f 35/45/29 37/47/29 36/46/29
f 35/45/29 38/48/29 37/47/29
f 35/45/29 36/46/29 34/44/29
f 8/10/17 9/12/30 44/54/5 43/53/16
f 25/33/31 23/30/18 46/56/12 45/55/6
f 9/12/30 25/33/31 45/55/6 44/54/5
f 23/30/18 8/10/17 43/53/16 46/56/12
f 47/57/20 50/60/19 49/59/32 48/58/33
f 23/31/18 25/34/31 49/59/32 50/60/19
f 25/35/31 9/13/30 48/58/33 49/59/32
f 9/14/30 8/11/17 47/57/20 48/58/33
f 52/62/34 53/63/35 63/78/36 575/639/37
f 94/114/38 52/62/34 575/639/37 95/115/39
f 53/63/35 54/64/40 65/80/40 63/78/36
f 595/659/36 603/667/36 602/666/37 594/658/37
f 54/65/40 55/66/41 67/83/42 65/81/40
f 597/661/42 605/669/42 604/668/40 596/660/40
f 55/66/41 56/67/43 69/85/44 67/83/42
f 592/656/45 600/664/45 599/663/46 591/655/46
f 51/61/47 57/68/48 56/67/43
f 56/67/43 57/68/48 71/87/46 69/85/44
f 594/658/37 602/666/37 601/665/39 593/657/39
f 51/61/47 93/113/49 57/68/48
f 57/68/48 93/113/49 96/116/45 71/87/46
f 596/660/40 604/668/40 603/667/36 595/659/36
f 51/61/47 94/114/38 93/113/49
f 58/69/50 97/117/51 100/120/52 73/89/53
f 51/61/47 52/62/34 94/114/38
f 590/654/44 598/662/44 605/669/42 597/661/42
f 591/655/46 599/663/46 598/662/44 590/654/44
f 574/638/54 577/641/54 576/640/55 60/75/55
f 578/642/56 579/643/56 577/641/54 574/638/54
f 580/644/57 581/645/57 579/643/56 578/642/56
f 582/646/58 583/647/58 581/645/57 580/644/57
f 584/648/59 585/649/59 583/647/58 582/646/58
f 586/650/60 587/651/60 585/649/59 584/648/59
f 588/652/61 589/653/61 587/651/60 586/650/60
f 60/75/55 576/640/55 589/653/61 588/652/61
f 593/657/39 601/665/39 600/664/45 592/656/45
f 61/76/29 76/96/29 77/97/29 62/77/29
f 62/77/29 77/97/29 78/98/29 64/79/29
f 64/79/29 78/98/29 79/99/29 66/82/29
f 66/82/29 79/99/29 80/100/29 68/84/29
f 68/84/29 80/100/29 81/101/29 70/86/29
f 70/86/29 81/101/29 82/102/29 72/88/29
f 72/88/29 82/102/29 83/103/29 74/92/29
f 74/92/29 83/103/29 76/96/29 61/76/29
f 85/105/29 88/108/29 89/109/29
f 85/105/29 89/109/29 90/110/29
f 85/105/29 90/110/29 91/111/29
f 85/105/29 91/111/29 92/112/29
f 85/105/29 92/112/29 84/104/29
f 85/105/29 86/106/29 87/107/29
f 85/105/29 87/107/29 88/108/29
f 85/105/29 84/104/29 86/106/29
f 58/70/50 93/113/49 94/114/38 59/72/62
f 75/93/63 95/115/39 96/116/45 73/90/53
f 59/72/62 94/114/38 95/115/39 75/93/63
f 73/90/53 96/116/45 93/113/49 58/70/50
f 97/117/51 98/118/64 99/119/65 100/120/52
f 73/91/53 100/120/52 99/119/65 75/94/63
f 75/95/63 99/119/65 98/118/64 59/73/62
f 59/74/62 98/118/64 97/117/51 58/71/50
f 114/135/66 101/121/66 102/122/67 607/671/67
f 628/693/68 112/133/68 101/121/66 114/135/66
f 607/671/67 102/122/67 103/123/69 610/674/69
f 639/704/70 640/705/71 652/717/71 651/716/70
f 610/674/69 103/123/69 104/124/70 612/676/70
f 632/697/72 633/698/73 645/710/73 644/709/72
f 612/676/70 104/124/70 105/125/71 614/678/71
f 635/700/68 636/701/66 648/713/66 647/712/68
f 614/678/71 105/125/71 106/126/74 616/680/74
f 638/703/69 639/704/70 651/716/70 650/715/69
f 616/680/74 106/126/74 107/127/75 618/682/75
f 630/695/76 632/697/72 644/709/72 642/707/76
f 618/682/75 107/127/75 108/128/76 620/684/76
f 641/706/74 631/696/75 643/708/75 653/718/74
f 620/684/76 108/128/76 109/129/72 622/686/72
f 634/699/77 635/700/68 647/712/68 646/711/77
f 622/686/72 109/129/72 110/130/73 624/688/73
f 637/702/67 638/703/69 650/715/69 649/714/67
f 624/688/73 110/130/73 111/131/77 626/690/77
f 631/696/75 630/695/76 642/707/76 643/708/75
f 626/691/77 111/132/77 112/133/68 628/693/68
f 640/705/71 641/706/74 653/718/74 652/717/71
f 633/698/73 634/699/77 646/711/77 645/710/73
f 606/670/78 115/136/79 608/672/79 609/673/78
f 115/136/79 117/138/80 611/675/80 608/672/79
f 117/138/80 119/140/81 613/677/81 611/675/80
f 119/140/81 121/142/82 615/679/82 613/677/81
f 121/142/82 123/144/83 617/681/83 615/679/82
f 123/144/83 125/146/84 619/683/84 617/681/83
f 125/146/84 127/148/85 621/685/85 619/683/84
f 127/148/85 129/150/86 623/687/86 621/685/85
f 129/150/86 131/152/87 625/689/87 623/687/86
f 131/152/87 133/154/88 627/692/88 625/689/87
f 133/154/88 135/156/89 629/694/89 627/692/88
f 135/156/89 606/670/78 609/673/78 629/694/89
f 636/701/66 637/702/67 649/714/67 648/713/66
f 116/137/90 113/134/90 138/159/90 137/158/90
f 118/139/90 116/137/90 137/158/90 139/160/90
f 120/141/90 118/139/90 139/160/90 140/161/90
f 122/143/90 120/141/90 140/161/90 141/162/90
f 124/145/90 122/143/90 141/162/90 142/163/90
f 126/147/90 124/145/90 142/163/90 143/164/90
f 128/149/90 126/147/90 143/164/90 144/165/90
f 130/151/90 128/149/90 144/165/90 145/166/90
f 132/153/90 130/151/90 145/166/90 146/167/90
f 134/155/90 132/153/90 146/167/90 147/168/90
f 136/157/90 134/155/90 147/168/90 148/169/90
f 113/134/90 136/157/90 148/169/90 138/159/90
f 150/171/90 153/174/90 154/175/90
f 150/171/90 154/175/90 155/176/90
f 150/171/90 155/176/90 156/177/90
f 150/171/90 156/177/90 157/178/90
f 150/171/90 157/178/90 158/179/90
f 150/171/90 158/179/90 159/180/90
f 150/171/90 159/180/90 160/181/90
f 150/171/90 160/181/90 161/182/90
f 150/171/90 161/182/90 151/172/90
f 150/171/90 149/170/90 152/173/90
f 150/171/90 152/173/90 153/174/90
f 150/171/90 151/172/90 149/170/90
f 175/197/66 655/720/68 163/184/68 162/183/66
f 676/742/67 175/197/66 162/183/66 173/195/67
f 655/720/68 658/723/77 164/185/77 163/184/68
f 687/753/73 699/765/73 700/766/72 688/754/72
f 658/723/77 660/725/73 165/186/73 164/185/77
f 680/746/71 692/758/71 693/759/70 681/747/70
f 660/725/73 662/727/72 166/187/72 165/186/73
f 683/749/67 695/761/67 696/762/66 684/750/66
f 662/727/72 664/729/76 167/188/76 166/187/72
f 686/752/77 698/764/77 699/765/73 687/753/73
f 664/729/76 666/731/75 168/189/75 167/188/76
f 678/744/74 690/756/74 692/758/71 680/746/71
f 666/731/75 668/733/74 169/190/74 168/189/75
f 689/755/76 701/767/76 691/757/75 679/745/75
f 668/733/74 670/735/71 170/191/71 169/190/74
f 682/748/69 694/760/69 695/761/67 683/749/67
f 670/735/71 672/737/70 171/192/70 170/191/71
f 685/751/68 697/763/68 698/764/77 686/752/77
f 672/737/70 674/739/69 172/193/69 171/192/70
f 679/745/75 691/757/75 690/756/74 678/744/74
f 674/740/69 676/742/67 173/195/67 172/194/69
f 688/754/72 700/766/72 701/767/76 689/755/76
f 681/747/70 693/759/70 694/760/69 682/748/69
f 654/719/78 657/722/78 656/721/89 176/198/89
f 176/198/89 656/721/89 659/724/88 178/200/88
f 178/200/88 659/724/88 661/726/87 180/202/87
f 180/202/87 661/726/87 663/728/86 182/204/86
f 182/204/86 663/728/86 665/730/85 184/206/85
f 184/206/85 665/730/85 667/732/84 186/208/84
f 186/208/84 667/732/84 669/734/83 188/210/83
f 188/210/83 669/734/83 671/736/82 190/212/82
f 190/212/82 671/736/82 673/738/81 192/214/81
f 192/214/81 673/738/81 675/741/80 194/216/80
f 194/216/80 675/741/80 677/743/79 196/218/79
f 196/218/79 677/743/79 657/722/78 654/719/78
f 684/750/66 696/762/66 697/763/68 685/751/68
f 177/199/90 198/220/90 199/221/90 174/196/90
f 179/201/90 200/222/90 198/220/90 177/199/90
f 181/203/90 201/223/90 200/222/90 179/201/90
f 183/205/90 202/224/90 201/223/90 181/203/90
f 185/207/90 203/225/90 202/224/90 183/205/90
f 187/209/90 204/226/90 203/225/90 185/207/90
f 189/211/90 205/227/90 204/226/90 187/209/90
f 191/213/90 206/228/90 205/227/90 189/211/90
f 193/215/90 207/229/90 206/228/90 191/213/90
f 195/217/90 208/230/90 207/229/90 193/215/90
f 197/219/90 209/231/90 208/230/90 195/217/90
f 174/196/90 199/221/90 209/231/90 197/219/90
f 211/233/90 215/237/90 214/236/90
f 211/233/90 216/238/90 215/237/90
f 211/233/90 217/239/90 216/238/90
f 211/233/90 218/240/90 217/239/90
f 211/233/90 219/241/90 218/240/90
f 211/233/90 220/242/90 219/241/90
f 211/233/90 221/243/90 220/242/90
f 211/233/90 222/244/90 221/243/90
f 211/233/90 212/234/90 222/244/90
f 211/233/90 213/235/90 210/232/90
f 211/233/90 214/236/90 213/235/90
f 211/233/90 210/232/90 212/234/90
f 226/249/91 231/255/92 706/773/93 227/250/94
f 229/252/95 713/781/96 714/782/96 236/261/97
f 230/253/98 235/260/99 715/783/100 712/780/100
f 223/245/101 702/768/102 231/254/92 226/249/91
f 225/247/103 237/262/104 711/779/105 224/246/106
f 702/768/102 703/769/107 231/254/92
f 703/769/107 704/770/108 231/254/92
f 704/771/108 705/772/109 231/255/92
f 705/772/109 706/773/93 231/255/92
f 707/774/110 708/775/111 237/263/104
f 708/775/111 709/776/112 237/263/104
f 709/777/112 710/778/113 237/262/104
f 710/778/113 711/779/105 237/262/104
f 235/260/99 230/253/98 234/259/114 238/264/115
f 238/264/115 234/259/114 233/257/116 239/265/116
f 239/266/116 233/258/116 232/256/117 240/267/118
f 240/267/118 232/256/117 229/252/95 236/261/97
f 228/251/119 707/774/110 237/263/104 225/248/103
f 254/281/66 241/268/66 242/269/67 717/785/67
f 738/806/68 252/279/68 241/268/66 254/281/66
f 717/785/67 242/269/67 243/270/69 720/788/69
f 749/817/70 750/818/71 762/830/71 761/829/70
f 720/788/69 243/270/69 244/271/70 722/790/70
f 742/810/72 743/811/73 755/823/73 754/822/72
f 722/790/70 244/271/70 245/272/71 724/792/71
f 745/813/68 746/814/66 758/826/66 757/825/68
f 724/792/71 245/272/71 246/273/74 726/794/74
f 748/816/69 749/817/70 761/829/70 760/828/69
f 726/794/74 246/273/74 247/274/75 728/796/75
f 740/808/76 742/810/72 754/822/72 752/820/76
f 728/796/75 247/274/75 248/275/76 730/798/76
f 751/819/74 741/809/75 753/821/75 763/831/74
f 730/798/76 248/275/76 249/276/72 732/800/72
f 744/812/77 745/813/68 757/825/68 756/824/77
f 732/800/72 249/276/72 250/277/73 734/802/73
f 747/815/67 748/816/69 760/828/69 759/827/67
f 734/802/73 250/277/73 251/278/77 736/804/77
f 741/809/75 740/808/76 752/820/76 753/821/75
f 736/804/77 251/278/77 252/279/68 738/806/68
f 750/818/71 751/819/74 763/831/74 762/830/71
f 743/811/73 744/812/77 756/824/77 755/823/73
f 716/784/78 255/282/79 718/786/79 719/787/78
f 255/282/79 257/284/80 721/789/80 718/786/79
f 257/284/80 259/286/81 723/791/81 721/789/80
f 259/286/81 261/288/82 725/793/82 723/791/81
f 261/288/82 263/290/83 727/795/83 725/793/82
f 263/290/83 265/292/84 729/797/84 727/795/83
f 265/292/84 267/294/85 731/799/85 729/797/84
f 267/294/85 269/296/86 733/801/86 731/799/85
f 269/296/86 271/298/87 735/803/87 733/801/86
f 271/298/87 273/300/88 737/805/88 735/803/87
f 273/300/88 275/302/89 739/807/89 737/805/88
f 275/302/89 716/784/78 719/787/78 739/807/89
f 746/814/66 747/815/67 759/827/67 758/826/66
f 256/283/90 253/280/90 278/305/90 277/304/90
f 258/285/90 256/283/90 277/304/90 279/306/90
f 260/287/90 258/285/90 279/306/90 280/307/90
f 262/289/90 260/287/90 280/307/90 281/308/90
f 264/291/90 262/289/90 281/308/90 282/309/90
f 266/293/90 264/291/90 282/309/90 283/310/90
f 268/295/90 266/293/90 283/310/90 284/311/90
f 270/297/90 268/295/90 284/311/90 285/312/90
f 272/299/90 270/297/90 285/312/90 286/313/90
f 274/301/90 272/299/90 286/313/90 287/314/90
f 276/303/90 274/301/90 287/314/90 288/315/90
f 253/280/90 276/303/90 288/315/90 278/305/90
f 290/317/90 293/320/90 294/321/90
f 290/317/90 294/321/90 295/322/90
f 290/317/90 295/322/90 296/323/90
f 290/317/90 296/323/90 297/324/90
f 290/317/90 297/324/90 298/325/90
f 290/317/90 298/325/90 299/326/90
f 290/317/90 299/326/90 300/327/90
f 290/317/90 300/327/90 301/328/90
f 290/317/90 301/328/90 291/318/90
f 290/317/90 289/316/90 292/319/90
f 290/317/90 292/319/90 293/320/90
f 290/317/90 291/318/90 289/316/90
f 820/895/120 819/894/121 811/883/122 810/882/120
f 819/894/121 812/884/123 811/883/122
f 339/366/124 340/367/125 780/849/126 309/336/127
f 819/894/121 813/885/128 812/884/123
f 340/367/125 341/368/129 782/851/130 780/849/126
f 819/894/121 814/886/131 813/885/128
f 341/368/129 342/369/132 784/853/133 782/851/130
f 342/369/132 343/370/134 786/855/135 784/853/133
f 419/457/136 786/855/135 343/370/134 455/497/137
f 788/858/138 773/842/139 310/337/140 352/379/141
f 352/379/141 310/337/140 312/339/142 353/380/143
f 353/380/143 312/339/142 314/341/144 354/381/145
f 354/381/145 314/341/144 316/343/146 350/377/147
f 355/382/148 785/854/149 817/890/150 470/514/151
f 344/371/152 775/844/153 776/845/154 778/847/155
f 346/373/156 344/371/152 778/847/155 311/338/157
f 347/374/158 346/373/156 311/338/157 313/340/159
f 348/375/160 347/374/158 313/340/159 315/342/161
f 349/376/162 348/375/160 315/342/161 334/361/163
f 819/894/121 443/485/164 815/887/165 814/886/131
f 361/388/166 477/522/167 796/866/168 795/865/169
f 357/384/170 358/385/171 792/862/172 791/861/173
f 358/385/171 359/386/174 793/863/175 792/862/172
f 359/386/174 356/383/176 794/864/177 793/863/175
f 797/868/178 357/384/170 791/861/173 789/859/179
f 362/389/180 363/390/181 802/873/182 801/872/183
f 363/390/181 364/391/184 803/874/185 802/873/182
f 806/878/186 366/393/187 800/871/188 798/869/189
f 367/394/190 483/529/191 805/876/192 804/875/193
f 366/393/187 362/389/180 801/872/183 800/871/188
f 368/395/194 369/396/195 818/892/196
f 369/396/195 370/397/197 818/892/196
f 370/397/197 371/398/198 818/892/196
f 807/879/199 368/395/194 818/892/196
f 373/400/200 492/539/201 818/892/196
f 371/398/198 373/400/200 818/892/196
f 364/391/184 367/394/190 804/875/193 803/874/185
f 356/383/176 361/388/166 795/865/169 794/864/177
f 462/505/202 349/376/162 334/361/163 787/856/203
f 350/377/147 316/343/146 785/854/149 355/382/148
f 331/358/204 337/364/205 343/370/134 342/369/132
f 337/364/205 816/888/206 455/497/137 343/370/134
f 330/357/207 331/358/204 342/369/132 341/368/129
f 329/356/208 330/357/207 341/368/129 340/367/125
f 328/355/209 329/356/208 340/367/125 339/366/124
f 809/881/210 328/355/209 339/366/124 808/880/211
f 418/455/212 333/360/213 349/376/162 462/505/202
f 333/360/213 783/852/214 348/375/160 349/376/162
f 783/852/214 781/850/215 347/374/158 348/375/160
f 781/850/215 779/848/216 346/373/156 347/374/158
f 779/848/216 772/841/217 344/371/152 346/373/156
f 772/841/217 774/843/218 775/844/153 344/371/152
f 769/837/219 350/377/147 355/382/148 770/838/220
f 770/838/220 355/382/148 470/514/151 771/839/221
f 768/836/222 354/381/145 350/377/147 769/837/219
f 767/835/223 353/380/143 354/381/145 768/836/222
f 766/834/224 352/379/141 353/380/143 767/835/223
f 764/832/225 788/858/138 352/379/141 766/834/224
f 306/333/226 332/359/227 361/388/166 356/383/176
f 765/833/228 303/330/229 357/384/170 797/868/178
f 305/332/230 306/333/226 356/383/176 359/386/174
f 304/331/231 305/332/230 359/386/174 358/385/171
f 303/330/229 304/331/231 358/385/171 357/384/170
f 332/359/227 412/448/232 477/522/167 361/388/166
f 321/348/233 335/362/234 367/394/190 364/391/184
f 318/345/235 319/346/236 362/389/180 366/393/187
f 335/362/234 430/469/237 483/529/191 367/394/190
f 790/860/238 318/345/235 366/393/187 806/878/186
f 320/347/239 321/348/233 364/391/184 363/390/181
f 319/346/236 320/347/239 363/390/181 362/389/180
f 326/353/240 336/363/241 373/400/200 371/398/198
f 336/363/241 436/476/242 492/539/201 373/400/200
f 799/870/243 323/350/244 368/395/194 807/879/199
f 325/352/245 326/353/240 371/398/198 370/397/197
f 324/351/246 325/352/245 370/397/197 369/396/195
f 323/350/244 324/351/246 369/396/195 368/395/194
f 808/880/211 339/366/124 309/336/127 777/846/247
f 526/584/248 821/896/75 822/898/249 405/440/250
f 406/441/251 404/439/252 824/900/253 402/437/254
f 398/431/255 400/435/256 376/403/257 377/404/258
f 400/435/256 401/436/259 375/402/260 376/403/257
f 397/428/261 378/405/262 407/442/263 409/444/264
f 403/438/265 501/549/266 507/562/266 381/412/267
f 823/899/268 403/438/265 381/412/267 382/413/269
f 380/411/270 823/899/268 382/413/269 383/414/270
f 505/558/271 377/404/258 506/560/90
f 377/404/258 376/403/257 506/560/90
f 376/403/257 375/402/260 506/560/90
f 345/372/272 308/335/273 386/417/274 390/421/275
f 365/392/276 322/349/277 388/419/278 393/424/279
f 308/335/273 351/378/280 391/422/281 386/417/274
f 317/344/282 365/392/276 393/424/279 387/418/283
f 302/329/284 360/387/285 392/423/286 384/415/287
f 360/387/285 317/344/282 387/418/283 392/423/286
f 307/334/288 345/372/272 390/421/275 385/416/289
f 351/378/280 302/329/284 384/415/287 391/422/281
f 338/365/290 307/334/288 385/416/289 389/420/291
f 372/399/292 442/483/75 521/577/75 394/425/293
f 322/349/277 372/399/292 394/425/293 388/419/278
f 374/401/294 327/354/295 395/426/296 396/427/297
f 411/446/75 374/401/294 396/427/297 523/580/75
f 327/354/295 338/365/290 389/420/291 395/426/296
f 825/901/298 826/902/299 526/584/248 405/440/250
f 827/904/300 825/901/298 405/440/250 406/441/251
f 828/905/301 827/904/300 406/441/251 402/437/254
f 527/586/302 398/431/255 377/404/258 505/558/271
f 379/408/303 378/406/262 822/898/249 404/439/252
f 397/429/261 399/432/304 406/441/251 405/440/250
f 378/406/262 397/429/261 405/440/250 822/898/249
f 399/432/304 379/408/303 404/439/252 406/441/251
f 409/444/264 407/442/263 408/443/305 410/445/306
f 378/407/262 379/409/303 408/443/305 407/442/263
f 379/410/303 399/433/304 410/445/306 408/443/305
f 399/434/304 397/430/261 409/444/264 410/445/306
f 877/954/307 871/948/307 872/949/308 819/894/121
f 819/894/121 872/949/308 873/950/309
f 457/500/310 422/461/311 844/921/312 458/501/313
f 819/894/121 873/950/309 874/951/314
f 458/501/313 844/921/312 846/923/315 459/502/316
f 819/894/121 874/951/314 875/952/317
f 459/502/316 846/923/315 848/925/318 460/503/319
f 460/503/319 848/925/318 850/927/320 461/504/321
f 419/458/136 455/498/137 461/504/321 850/927/320
f 851/928/322 472/517/323 423/462/324 837/914/325
f 472/517/323 473/518/326 425/464/327 423/462/324
f 473/518/326 474/519/328 427/466/329 425/464/327
f 474/519/328 469/513/330 429/468/331 427/466/329
f 475/520/332 470/515/151 817/891/150 849/926/333
f 463/507/334 842/919/335 840/917/336 839/916/337
f 465/509/338 424/463/339 842/919/335 463/507/334
f 466/510/340 426/465/341 424/463/339 465/509/338
f 467/511/342 428/467/343 426/465/341 466/510/340
f 468/512/344 451/493/345 428/467/343 467/511/342
f 819/894/121 875/952/317 876/953/346 443/485/164
f 482/528/347 858/935/348 796/867/168 477/523/167
f 478/524/349 854/931/350 855/932/351 479/525/352
f 479/525/352 855/932/351 856/933/353 480/526/354
f 480/526/354 856/933/353 857/934/355 476/521/356
f 859/936/357 852/929/358 854/931/350 478/524/349
f 484/531/359 863/940/360 864/941/361 485/532/362
f 485/532/362 864/941/361 865/942/363 486/533/364
f 867/944/365 860/937/366 862/939/367 488/535/368
f 489/536/369 866/943/370 805/877/192 483/530/191
f 488/535/368 862/939/367 863/940/360 484/531/359
f 490/537/371 818/893/196 491/538/372
f 491/538/372 818/893/196 493/541/373
f 493/541/373 818/893/196 494/542/374
f 868/945/375 818/893/196 490/537/371
f 496/544/376 818/893/196 492/540/201
f 494/542/374 818/893/196 496/544/376
f 486/533/364 865/942/363 866/943/370 489/536/369
f 476/521/356 857/934/355 858/935/348 482/528/347
f 462/506/202 787/857/203 451/493/345 468/512/344
f 469/513/330 475/520/332 849/926/333 429/468/331
f 448/490/377 460/503/319 461/504/321 454/496/378
f 454/496/378 461/504/321 455/498/137 816/889/206
f 447/489/379 459/502/316 460/503/319 448/490/377
f 446/488/380 458/501/313 459/502/316 447/489/379
f 445/487/381 457/500/310 458/501/313 446/488/380
f 870/947/382 869/946/383 457/500/310 445/487/381
f 418/456/212 462/506/202 468/512/344 450/492/384
f 450/492/384 468/512/344 467/511/342 847/924/385
f 847/924/385 467/511/342 466/510/340 845/922/386
f 845/922/386 466/510/340 465/509/338 843/920/387
f 843/920/387 465/509/338 463/507/334 836/913/388
f 836/913/388 463/507/334 839/916/337 838/915/389
f 834/911/390 835/912/391 475/520/332 469/513/330
f 835/912/391 771/840/221 470/515/151 475/520/332
f 833/910/392 834/911/390 469/513/330 474/519/328
f 832/909/393 833/910/392 474/519/328 473/518/326
f 831/908/394 832/909/393 473/518/326 472/517/323
f 829/906/395 831/908/394 472/517/323 851/928/322
f 417/454/396 476/521/356 482/528/347 449/491/397
f 830/907/398 859/936/357 478/524/349 414/451/399
f 416/453/400 480/526/354 476/521/356 417/454/396
f 415/452/401 479/525/352 480/526/354 416/453/400
f 414/451/399 478/524/349 479/525/352 415/452/401
f 449/491/397 482/528/347 477/523/167 412/449/232
f 435/475/402 486/533/364 489/536/369 452/494/403
f 432/472/404 488/535/368 484/531/359 433/473/405
f 452/494/403 489/536/369 483/530/191 430/470/237
f 853/930/406 867/944/365 488/535/368 432/472/404
f 434/474/407 485/532/362 486/533/364 435/475/402
f 433/473/405 484/531/359 485/532/362 434/474/407
f 441/482/408 494/542/374 496/544/376 453/495/409
f 453/495/409 496/544/376 492/540/201 436/477/242
f 861/938/410 868/945/375 490/537/371 438/479/411
f 440/481/412 493/541/373 494/542/374 441/482/408
f 439/480/413 491/538/372 493/541/373 440/481/412
f 438/479/411 490/537/371 491/538/372 439/480/413
f 869/946/383 841/918/414 422/461/311 457/500/310
f 526/585/248 536/600/415 878/955/416 821/897/75
f 537/601/417 533/597/418 880/957/419 535/599/420
f 529/591/421 500/548/422 499/547/423 531/595/424
f 531/595/424 499/547/423 498/546/425 532/596/426
f 528/588/427 540/604/428 538/602/429 502/551/430
f 534/598/431 508/564/432 507/563/266 501/550/266
f 879/956/433 509/565/434 508/564/432 534/598/431
f 504/557/435 510/566/435 509/565/434 879/956/433
f 505/559/271 506/561/90 500/548/422
f 500/548/422 506/561/90 499/547/423
f 499/547/423 506/561/90 498/546/425
f 464/508/436 517/573/437 513/569/438 421/460/439
f 487/534/440 520/576/441 515/571/442 437/478/443
f 421/460/439 513/569/438 518/574/444 471/516/445
f 431/471/446 514/570/447 520/576/441 487/534/440
f 413/450/448 511/567/449 519/575/450 481/527/451
f 481/527/451 519/575/450 514/570/447 431/471/446
f 420/459/452 512/568/453 517/573/437 464/508/436
f 471/516/445 518/574/444 511/567/449 413/450/448
f 456/499/454 516/572/455 512/568/453 420/459/452
f 495/543/456 522/579/457 521/578/75 442/484/75
f 437/478/443 515/571/442 522/579/457 495/543/456
f 497/545/458 525/583/459 524/582/460 444/486/461
f 411/447/75 523/581/75 525/583/459 497/545/458
f 444/486/461 524/582/460 516/572/455 456/499/454
f 881/958/462 536/600/415 526/585/248 826/903/299
f 882/959/463 537/601/417 536/600/415 881/958/462
f 883/960/464 533/597/418 537/601/417 882/959/463
f 527/587/302 505/559/271 500/548/422 529/591/421
f 503/554/465 535/599/420 878/955/416 502/552/430
f 528/589/427 536/600/415 537/601/417 530/592/466
f 502/552/430 878/955/416 536/600/415 528/589/427
f 530/592/466 537/601/417 535/599/420 503/554/465
f 540/604/428 541/605/467 539/603/468 538/602/429
f 502/553/430 538/602/429 539/603/468 503/555/465
f 503/556/465 539/603/468 541/605/467 530/593/466
f 530/594/466 541/605/467 540/604/428 528/590/427
